<?xml version="1.0" encoding="utf-8"?>
<!-- Generator: Adobe Illustrator 22.0.0, SVG Export Plug-In . SVG Version: 6.00 Build 0)  -->
<svg version="1.1" xmlns="http://www.w3.org/2000/svg" xmlns:xlink="http://www.w3.org/1999/xlink" x="0px" y="0px"
	 viewBox="0 0 718.8 426.9" style="enable-background:new 0 0 718.8 426.9;" xml:space="preserve">
<style type="text/css">
	.st0{fill:#F7F7F7;}
	.st1{fill:#E0B38F;}
	.st2{fill:#EDDCCF;}
	.st3{fill:#E5D9D0;}
	.st4{fill:#E5E1BC;}
	.st5{fill:#FFFFFF;}
	.st6{fill:#F0E1DA;}
	.st7{fill:#EEA886;}
	.st8{fill:#E8734D;}
	.st9{fill:#202338;}
	.st10{fill:#81807E;}
	.st11{fill:#292C47;}
	.st12{fill:#C46141;}
	.st13{fill:#EEA987;}
	.st14{fill:#EBDBDB;}
	.st15{fill:#A77860;}
	.st16{fill:#EFAA88;}
	.st17{fill:#323657;}
	.st18{fill:#163342;}
	.st19{fill:#3A557A;}
	.st20{fill:#EDDAD3;}
	.st21{fill:#C98462;}
	.st22{fill:#779398;}
	.st23{fill:#4C8089;}
	.st24{fill:#A6CFD6;}
	.st25{fill:#3A3F47;}
	.st26{fill:#C78D71;}
	.st27{fill:#DB9C7C;}
	.st28{fill:#FCCCA2;}
	.st29{fill:#E9EDFF;}
	.st30{fill:#1F4A6E;}
	.st31{fill:#3B3B40;}
	.st32{fill:#FFD255;}
	.st33{fill:#4183BA;}
	.st34{fill:#FF935C;}
	.st35{fill:#2F4563;}
	.st36{fill:#DBCAC3;}
	.st37{fill:#BD9B3F;}
	.st38{fill:#151624;}
	.st39{fill:#A87860;}
	.st40{fill:#0B7A53;}
</style>
<g id="Слой_1">
	<g>
		<rect class="st0" width="718.8" height="426.9"/>
		<rect x="118.9" y="48.9" class="st1" width="31.3" height="276.6"/>
		<path class="st2" d="M118.9,147.4v178h10.8v-73.8c0,0-3.4,28.9-3.4,26.3c0-2.6-0.9-93.5,0.6-99.8c1.4-6.2-1.1-41.2-1.1-41.2
			L118.9,147.4z"/>
		<rect x="513.6" y="28.8" class="st1" width="34.8" height="276.6"/>
		<rect x="555.3" y="34.1" class="st3" width="10" height="276.5"/>
		<rect x="578.2" y="46.2" class="st1" width="31.3" height="276.5"/>
		<path class="st2" d="M578.2,322.8V108.6h10.6c0,0,2.1,75.9,0,84.8c-2.1,8.9,0.6,24.6,0.9,39.6c0.4,14.9,0,89.8,0,89.8H578.2z"/>
		<path class="st2" d="M591.8,204.2c0,0,1.2,14.6,1.5,18.1c0.3,3.6-1.1,55.7,0,62.1c1.1,6.4,2.5,15.6,2.5,15.6
			S597.5,227.1,591.8,204.2z"/>
		<path class="st2" d="M609.4,293.2c0,0,0.1,4.6-5.1,7.5c-5.2,2.9-10.2,1.9-8.9,6.9c1.4,5-9.7,2.7-12,7.9c-2.3,5.2,3.7,7.5,3.7,7.5
			h31.8c0,0,5.8-6.5,0-12.6C613.1,304.2,609.4,293.2,609.4,293.2z"/>
		<rect x="284.1" y="39.9" class="st3" width="16.2" height="276.5"/>
		<rect x="399.4" y="39.9" class="st3" width="11.2" height="276.5"/>
		<rect x="307.9" y="39.9" class="st3" width="10" height="276.5"/>
		<rect x="432.2" y="45.1" class="st3" width="10" height="276.5"/>
		<rect x="162.9" y="46.2" class="st3" width="10" height="276.5"/>
		<rect x="384.3" y="42.8" class="st3" width="6.2" height="276.6"/>
		<rect x="214.7" y="46.2" class="st3" width="10" height="276.5"/>
		<rect x="181" y="48.9" class="st3" width="5.7" height="276.5"/>
		<rect x="193.3" y="48.9" class="st3" width="2.5" height="276.5"/>
		<rect x="419.2" y="28.8" class="st3" width="5.9" height="276.6"/>
		<rect x="244.7" y="46.2" class="st1" width="31.3" height="276.5"/>
		<path class="st2" d="M244.7,102c0,0,9.7,24.1,10.6,59.4c0.9,35.2,1.3,67.3,0,84.8c-1.3,17.5,0,30.9,0,30.9l3.4,45.7h-14V102z"/>
		<path class="st2" d="M260.3,187.1c0,0-1.3,30-1.7,36.2c-0.4,6.1-1.6,31.9-1.6,37c0,5.1,1.6,29.4,1.6,29.4s0.9-33.2,1.7-37
			C261.1,248.9,260.3,187.1,260.3,187.1z"/>
		<path class="st1" d="M475.6,167.1c0,0,9.3-19.6,16.9-22.6c7.6-2.9,22.5-23.8,22.5-23.8l19.6-18v2.7c0,0-14.5,16-17.2,20.9
			c-2.7,5-18.9,19.1-23.2,24c-4.3,4.9-13.2,28.8-13.2,28.8L475.6,167.1z"/>
		<rect x="452.4" y="38" class="st1" width="31.3" height="276.5"/>
		<rect x="452.4" y="50.5" class="st2" width="8.7" height="264.1"/>
		<path class="st2" d="M452.4,233c0,0-2.3-12.6-11.3-17.2c-9-4.6-14.6-16.9-19.7-18.8v-1.1c0,0,6.3,3.5,11.2,10.9
			c3.9,5.8,11.3,6.3,15.2,9.5c3.9,3.2,7.9,10.2,7.9,10.2L452.4,233z"/>
		<path class="st1" d="M480.9,214.4c0,0,4.9-14.9,14-18.6c9.2-3.7,19.5-24.6,27.5-23.4v-2c0,0-4.4-0.4-9.6,6.1
			c-5.2,6.4-13.8,16.4-20.6,17.7c-6.8,1.3-12.8,16.4-12.8,16.4L480.9,214.4z"/>
		<path class="st1" d="M270.9,221.5c0,0,2.6-13.6,12.7-14.4c10.1-0.8,10.9-19,17.4-22.6c6.4-3.6,14.8-4.3,14.8-4.3v-0.9
			c0,0-11.4-1.2-18.2,5.1c-6.9,6.3-6.4,18.8-15.5,19.8c-9,1-13.5,7.3-13.5,7.3L270.9,221.5z"/>
		<path class="st2" d="M464.6,193.4c0,0-0.3,102.2,0,105.5C464.6,298.9,468.3,210.8,464.6,193.4z"/>
		<path class="st2" d="M513.6,305.4V105.4c0,0,8.9,6.1,8.8,17.2s0.7,28.7,2,35.2c1.3,6.5-1.4,18.6-2,29.2
			c-0.6,10.6,1.4,26.3,2.3,37.5c0.9,11.1,0,80.8,0,80.8H513.6z"/>
		<polygon class="st2" points="528.7,305.4 528.7,131.1 530.9,122.7 530.9,130.7 530.9,305.4 		"/>
		<path class="st2" d="M247.9,182.2c0,0-5.5-7.2-12.4-7.2c-6.9,0-13.2-11.1-19.1-8.7c-5.9,2.4-8.9,3.7-8.9,3.7s9-6.1,11.1-5.5
			c2,0.6,12.2,9.1,15.9,8.8c3.7-0.3,13.4,3.6,13.4,3.6V182.2z"/>
		<path class="st1" d="M586.2,206.1c0,0-7.1-9.2-15.9-9.2c-8.8,0-17-14.2-24.5-11.1c-7.5,3.1-11.4,4.8-11.4,4.8s11.6-7.9,14.2-7.1
			c2.6,0.8,15.7,11.6,20.4,11.3c4.7-0.4,17.2,4.6,17.2,4.6V206.1z"/>
		<path class="st3" d="M220.6,220.9c0,0-3.5-4.6-7.9-4.6c-4.4,0-8.5-7.1-12.2-5.6c-3.8,1.5-5.7,2.4-5.7,2.4s5.8-3.9,7.1-3.5
			c1.3,0.4,7.8,5.8,10.2,5.6c2.4-0.2,8.6,2.3,8.6,2.3V220.9z"/>
		<path class="st3" d="M408.8,171.4c0,0-3.1-4.1-7-4.1s-7.5-6.3-10.8-4.9c-3.3,1.4-5,2.1-5,2.1s5.1-3.5,6.3-3.1c1.1,0.3,6.9,5.2,9,5
			c2.1-0.2,7.6,2,7.6,2V171.4z"/>
		<path class="st3" d="M386.5,211.1c0,0-3.1-4.1-7-4.1c-3.9,0-7.5-6.3-10.8-4.9c-3.3,1.4-5,2.1-5,2.1s5.1-3.5,6.3-3.1
			c1.1,0.3,6.9,5.2,9,5c2.1-0.2,7.6,2,7.6,2V211.1z"/>
		<path class="st1" d="M146,241.4c0,0,12.3-9.2,16-5.4c3.7,3.8,19.8-7.8,21.8-5.3c2,2.5,10.9,3,10.9,3s-9.2-2.9-10.3-4.1
			c-2.2-2.5-15.9,6.1-19.8,4.2c-3.9-1.9-19.3,2.9-19.3,2.9L146,241.4z"/>
		<path class="st1" d="M127.7,230.7c0,0-5.8-22.4-18.5-24.3c-7.8-1.1-18.1-0.8-20.4-2.3c-2.3-1.5-10-15-10-15s9.7,14.6,16.3,14.6
			c6.6,0,24.3,1.9,27.2,8.7c2.9,6.8,9.4,11.2,9.4,11.2L127.7,230.7z"/>
		<path class="st1" d="M139.7,197.6c0,0,12-11.7,14.4-11.8c2.4-0.1,11.2,1.6,14.8-1.4c3.6-3.1,9.2-6.1,9.2-6.1v1.1
			c0,0-8.4,5.5-9.9,7.3c-1.5,1.8-10.5-0.3-14.1,2.2c-3.5,2.5-12.3,11.2-12.3,11.2L139.7,197.6z"/>
		<path class="st3" d="M310.9,234.7c0,0,5.7-5.5,6.8-5.5c1.1,0,5.2,0.8,7-0.7c1.7-1.4,4.3-2.9,4.3-2.9v0.5c0,0-3.9,2.6-4.6,3.4
			c-0.7,0.9-4.9-0.1-6.6,1c-1.7,1.2-5.8,5.3-5.8,5.3L310.9,234.7z"/>
		<path class="st3" d="M403.3,188.5c0,0,5.7-5.5,6.8-5.5c1.1,0,5.2,0.8,7-0.7c1.7-1.4,4.3-2.9,4.3-2.9v0.5c0,0-3.9,2.6-4.6,3.4
			c-0.7,0.9-4.9-0.1-6.6,1c-1.7,1.2-5.8,5.3-5.8,5.3L403.3,188.5z"/>
		<path class="st2" d="M129.7,245.5c0,0,0.3-28.7,0-33.1c-0.3-4.4-0.3-24.1,0-29.2c0.3-5.1,0.1-21.5,0.1-21.5s3.6,5.6,1.9,11
			C130,178.1,131.7,222.9,129.7,245.5z"/>
		<path class="st1" d="M605.9,184.7c0,0-7.1-10,12.5-21.9c19.6-11.9,25.1-35.9,37.7-40.8l1.3-7c0,0-8.8,3.7-16.2,14.1
			c-7.4,10.4-13.2,22.6-27.3,26.1c-14.1,3.5-15.7,19-15.7,19L605.9,184.7z"/>
		<path class="st1" d="M268.3,185.2c0,0,4-16.3,24-17.7c20-1.4,29.2-35.6,43.5-42.2c14.3-6.6,21.2-26.5,21.2-26.5l-5.2-1.3
			c0,0-10.6,23-24.6,25c-14,2-16.3,32.1-40.6,37c-24.4,5-27.8,16.1-27.8,16.1L268.3,185.2z"/>
		<path class="st1" d="M288.8,224.1c0,0,1.4-5.9,4.9-7.1c3.6-1.1,1.9-4.7,1.9-4.7S304.2,221.8,288.8,224.1z"/>
		<path class="st1" d="M239.5,207.8c0,0-3.4-3.2-2.7-5.7c0.7-2.4-2.4-3-2.4-3S244.3,198.4,239.5,207.8z"/>
		<path class="st1" d="M160.5,207.5c0,0,6.7,0.4,8.5,3.4c1.8,3,5.5,1,5.5,1S165.3,220.7,160.5,207.5z"/>
		<path class="st1" d="M490.5,217.9c0,0,6.7,0.4,8.5,3.4c1.8,3,5.5,1,5.5,1S495.3,231.1,490.5,217.9z"/>
		<path class="st1" d="M613.8,169.6c0,0,7.2-3.7,11.3-1.7c4.1,2,6.4-2.3,6.4-2.3S628.8,180.3,613.8,169.6z"/>
		<path class="st1" d="M375.3,189.8c0,0,4.8-6,9.5-5.7c4.7,0.3,4.7-4.5,4.7-4.5S393.9,194,375.3,189.8z"/>
		<path class="st1" d="M488.1,176.4c0,0,1.7-2,3.3-1.8c1.6,0.2,1.7-1.4,1.7-1.4S494.3,178.1,488.1,176.4z"/>
		<path class="st2" d="M394,87.9c0,0-29.8,0.8-12.6,23.5c0,0-19.5,10,1.7,22.7c21.2,12.8,47.4-2.6,53.5,13
			c6.1,15.6,42.7,18.6,56.5,3.3s-28.1-22.4-15.5-26.3c12.6-3.9,78.2,12.5,66.2-11.5c-12-24,57.8-1.3,34.9-19.4
			c-22.9-18.1,13.2-32.2-41.8-35c-55-2.8-131.7,0-131.7,0S355.6,61.1,394,87.9z"/>
		<path class="st2" d="M73.5,76.7c0,0-29.8,0.8-12.6,23.5c0,0-19.5,10,1.7,22.7c21.2,12.8,47.4-2.6,53.5,13
			c6.1,15.6,42.7,18.6,56.5,3.3c13.7-15.3-28.1-22.4-15.5-26.3c12.6-3.9,78.2,12.5,66.2-11.5c-12-24,57.8-1.3,34.9-19.4
			c-22.9-18.1,13.2-32.2-41.8-35c-55-2.8-131.7,0-131.7,0S35.1,49.8,73.5,76.7z"/>
		<path class="st2" d="M286.7,89.9c0,0,24,10.7,2.1,27.2c-21.9,16.5,27,3.8,21.9,22.2c-5.2,18.4-28.1,6.5-54.8,13
			c-26.8,6.5-0.6,23.1-44.8,18.3c-44.2-4.8,1.7-33.8-23.2-35.1c-24.9-1.2-37.8,16.8-69.1,15.3c-31.3-1.5-32.6-20.3-8.2-25.7
			c0,0-37.2-10.7-6.6-23c30.6-12.3,8.7-23.8,37.1-23.8C169.4,78.4,286.7,89.9,286.7,89.9z"/>
		<path class="st2" d="M650.3,73.8c0,0,24,10.7,2.1,27.2c-21.9,16.5,27.1,3.8,21.9,22.2c-5.2,18.4-28.1,6.5-54.8,13
			c-26.8,6.5-0.6,23.1-44.8,18.3c-44.2-4.8,1.7-33.8-23.2-35.1c-24.9-1.2-7.5,24.1-38.9,22.5c-31.3-1.5-84.8-14.2-38.4-32.9
			c0,0-37.2-10.7-6.6-23c30.6-12.3,8.7-23.8,37.1-23.8C533.1,62.3,650.3,73.8,650.3,73.8z"/>
		<path class="st2" d="M439.4,73.8c0,0,24,10.7,2.1,27.2c-21.9,16.5,27,3.8,21.9,22.2c-5.2,18.4-28.1,6.5-54.8,13
			c-26.8,6.5-0.6,23.1-44.8,18.3c-44.2-4.8,1.7-33.8-23.2-35.1c-24.9-1.2-7.5,24.1-38.9,22.5c-31.3-1.5-84.8-14.2-38.4-32.9
			c0,0-37.2-10.7-6.6-23c30.6-12.3,8.7-23.8,37.1-23.8C322.2,62.3,439.4,73.8,439.4,73.8z"/>
		<path class="st2" d="M157.8,46.2c0,0-26.2-12.2,62.8-12.2c89,0,118.1-6.2,116.9,12.2c-1.2,18.4,2.7-22.7,70.2-22.7
			c67.5,0,164.8-4.9,170.6,3.6c0,0,52.4,3.4,45.2,23.4c-7.2,20.1,12.8,32.5-7.1,39.1c-19.9,6.7-337.4,27.7-382,7.9
			C189.8,77.6,157.8,46.2,157.8,46.2z"/>
		<g>
			<path class="st4" d="M136.8,319.4c0,0-102.5,0.2-88.9,14c13.6,13.8-21.6,17.6,8.9,25.1c30.5,7.6,110.7,8.2,77.2,23.6
				c-33.5,15.4,111.3,22.1,113.9,9.1c2.6-13,47.9-19.5,86.6-9.1c38.7,10.4,94.1-0.1,124.7,5.8c30.5,5.9,135.1,7,123.7-7.8
				c-11.4-14.8,137.1-36.8,52.5-54.5C550.8,307.8,136.8,319.4,136.8,319.4z"/>
			<path class="st5" d="M445.7,393c0,0-3-11.8-10.4-19.2c0,0,9.7,7.1,13.1,17.6c0,0,1-6.2-2.4-12.1c0,0,5.5,6.1,5.3,11.8
				C451.1,396.7,445.7,393,445.7,393z"/>
			<path class="st6" d="M188.9,288.4c0,0,1.1-5.7,5.3-6.1c4.3-0.3,4.6-8,7.3-9.5c2.7-1.5,6.2-1.8,6.2-1.8v-0.4c0,0-4.8-0.5-7.7,2.2
				c-2.9,2.7-2.7,7.9-6.5,8.3c-3.8,0.4-5.7,3.1-5.7,3.1L188.9,288.4z"/>
			<path class="st2" d="M477.2,292.2c0,0-3.5-9.2,6-8.2c0,0,7.7-5.6,11,1.5c0,0,8.2-4.3,8.8,4.1c0.6,8.4,10.9,2.3,11.4,10.5
				c0,0,12-0.8,8.7,6.9c0,0,16.5-1,15,10h-56.4L477.2,292.2z"/>
			<path class="st2" d="M144.1,325.5c0,0-3.1-5.5,3.7-9c0,0-5.2-10.4,5.3-12c0,0,5.3-7.2,9-3.8c0,0,14.2-1.5,15.7,7.7
				c0,0,11.7-1.5,11.7,5.4c0,0,31.1,0.3,31.1,11.8H144.1z"/>
			<path class="st4" d="M259.7,333c0,0-1.1-3.4,1.3-7.5c0,0-1.2,3.6,0,5.9c0,0,0.9,0.4,1.7-2.2c0,0,0.1,2.6-0.7,3.7
				c-0.8,1.2,3.8-1.5,3.9-7.1c0,0,1.3,6.6-3.2,8.3C258.2,335.9,259.7,333,259.7,333z"/>
			<path class="st4" d="M577.3,334.5c0,0-3-11.8-10.4-19.2c0,0,9.7,7.1,13.1,17.6c0,0,1-6.2-2.4-12.1c0,0,5.5,6.1,5.3,11.8
				C582.7,338.2,577.3,334.5,577.3,334.5z"/>
			<path class="st5" d="M269.9,382.8c0,0-1.3-6.4-9.5-11.5c0,0,8.5,0.3,11.3,8.8c0,0,0.4-4.5,1.4-8.8c0,0-0.4,4.4,1.4,8.8
				C276.2,384.4,269.9,382.8,269.9,382.8z"/>
		</g>
	</g>
</g>
<g id="Layer_2">
	<g>
		<g>
			<path class="st7" d="M386.8,217.5c0,0-6.7,0.8-7.1,1.2c-0.4,0.4-0.3,0.8,0.3,0.7c0.6,0,6.5-0.6,6.5-0.6s-7.7,2.3-8.1,2.6
				c-0.2,0.2-0.1,0.9,0.2,0.9s8.1-1.8,8.1-1.8s-7.2,2.1-7.4,2.5c-0.2,0.3,0.1,0.9,0.6,0.8c0.5-0.1,7.3-1.7,7.3-1.7s-5.1,1.9-5.1,2.3
				c0,0.3,0.1,0.9,1.4,0.3c1.3-0.5,4.5-1.4,4.5-1.4L386.8,217.5z"/>
		</g>
		<g>
			<g>
				<path class="st7" d="M394.7,217.8c0,0-2.2,0.1-2.9-1c-0.6-1-2-1.8-2.4-2.1c-0.6-0.4-2-2.1-2.4-1.4c-0.4,0.7,2.2,3,2.7,3.6
					c0.5,0.6-2.8,0.4-3.3,0.8c-0.6,0.4-0.3,5.8,1.9,5.6c2.2-0.1,4.4-1.7,4.8-1.6c0.4,0.1,1.6,0,1.6,0L394.7,217.8z"/>
			</g>
		</g>
		<g>
			<path class="st8" d="M393.8,223.1c0,0,16.5-2.3,20.1-3.2c1.7-0.4,3.9-2.7,6-5.5c0.7-0.9,1.4-1.9,2-2.8c0,0,0,0,0,0
				c2.6-3.7,4.6-7.3,4.6-7.3s7.7-9,1.5-13c0,0-1.9-0.3-3.1,0c-3.8,1.1-6.9,8.8-7.5,9.9c-0.5,1.2-6.2,11.6-6.6,11.9
				c-0.4,0.2-5.1,1.3-7.7,1.8c-3.8,0.8-10.8,2.2-10.8,2.2L393.8,223.1z"/>
		</g>
		<g>
			<path class="st9" d="M412.5,333.1c0,0-2.8,3.1-5.6,3.7c-2.8,0.6-4.8,1.5-4.8,3.2c0,1.8,8.1,2.9,11.3,1.2c4.8-2.7,5.3-1.9,5.8-3.2
				c0.5-1.3-0.6-4.9-0.6-5.3C418.7,332.2,412.5,333.1,412.5,333.1z"/>
		</g>
		<g>
			<path class="st10" d="M412.8,331.6c0,0-0.4,1.4-0.3,1.5c0.1,0,6.3,0.8,6.1-0.4c-0.2-0.9-0.4-2-0.4-2L412.8,331.6z"/>
		</g>
		<g>
			<path class="st9" d="M440.3,334.4c0,0-2.8,3.1-5.6,3.7c-2.8,0.6-4.8,1.5-4.8,3.2c0,1.8,8.1,2.9,11.3,1.2c4.8-2.7,5.3-1.9,5.8-3.2
				c0.5-1.3-0.6-4.9-0.6-5.3C446.5,333.5,440.3,334.4,440.3,334.4z"/>
		</g>
		<g>
			<path class="st10" d="M440.6,332.9c0,0-0.4,1.4-0.3,1.5c0.1,0,6.3,0.8,6.1-0.4c-0.2-0.9-0.4-2-0.4-2L440.6,332.9z"/>
		</g>
		<g>
			<path class="st11" d="M418.5,245.1c0,0-2.3,22.1-3.5,29.7c-1.4,8.9-1.9,16.2-2.2,20.8c-0.5,5.8-0.6,34.1-0.9,35.8
				c-0.3,1.7,7.5,0.5,7.5,0.5s5.8-36.8,7.3-42.9c1.3-5.7,4.4-30.6,5.7-29.1c1.2,1.6,1.4,28.8,2.3,33.3c0.9,4.5,5,39.8,5,39.8
				s6.3,1.3,7.9-0.2c0,0,0.8-30.4,0.2-38.9c-0.2-3.2,3.8-38.6-1.3-52.9C443.8,233.4,418.5,245.1,418.5,245.1z"/>
		</g>
		<g>
			<path class="st12" d="M418.8,241.4l-0.4,4.1c0,0,8.5,4,30.4,6.3l0.1-3.7L418.8,241.4z"/>
		</g>
		<g>
			<path class="st8" d="M434.6,190.3c0,0-2.7,0.3-9,0.8c-1.1,0.8-4.6,9.8-4.9,12.2c-0.4,2.4-0.6,11.7,0.1,15.5
				c0.6,3.8-3.9,20.7-2.4,23.4c0,0,15.4,6.4,31.1,6c0,0-0.2-15.4,1-20.4c1.5-6.4,5-21.1,5-21.1s1.3-11.6-0.3-12.4
				c-3.6-1.9-12.5-3.4-12.5-3.4L434.6,190.3z"/>
		</g>
		<g>
			<path class="st8" d="M431,190.7c0,0-0.2-2.2,6.5-2c6.7,0.2,11.1,2.2,11,4.1c-0.1,1.9-17.6,4.9-17.6,4.9L431,190.7z"/>
		</g>
		<g>
			<path class="st13" d="M440.4,166.6c0,0-9-4.5-9.7,8c-0.7,12.5,1.3,14,7.7,12.9c6.3-1.1,7.7-8.9,8.9-12.6
				C448.4,171.3,443.4,167.4,440.4,166.6z"/>
		</g>
		<g>
			<path class="st13" d="M432.8,192.1c0,0,2.1,1.2,9.8-1.2c0,0,0.3-5,2.3-9.6c1.9-4.5-10.5,5.2-10.5,5.2c0.1,0.1,0.1,0.6-0.1,1.2
				c-0.1,0.5-0.3,1.2-0.6,1.9C433.2,191.2,433.3,190.9,432.8,192.1z"/>
		</g>
		<g>
			<path class="st14" d="M445.2,181c0,0,0.4-3.3-1-3.8c-1.3-0.5-2.3,1.4-2.3,1.4l-1.1-0.2c0,0,1.4-3.3,0.1-4.2
				c-1.2-0.9-9.2-1.1-10.1-2.3c-0.9-1.2,1.3-7.8,3.5-8.3c2.2-0.4,8.2-1.1,11.6,2.6c0,0,3.1,1.7,2.9,4.4
				C448.8,173.3,446.6,179.3,445.2,181z"/>
		</g>
		<g>
			<path class="st15" d="M433.8,189.6c7.4-0.4,8.9-4.5,8.9-4.5c-3.2,3.3-8.4,2.6-8.4,2.6C434.2,188.3,434,189,433.8,189.6z"/>
		</g>
		<g>
			<path class="st13" d="M442.9,175.7c0.5-1.1,2.9-0.7,2.4,1c-0.4,1.7-2.6,4.2-3.4,3.6C441.2,179.7,442.1,177.1,442.9,175.7z"/>
		</g>
		<g>
			<path class="st16" d="M453.5,253.8c0,0,0.4-0.7,0.5-1.1c0,0,0-0.7,0.1-1.2c0-0.2,0-0.3,0.1-0.4c0.1-0.4,0.4-1.2,0.3-2.1
				c0-1-0.5-4.3-0.5-4.3l-2.9-0.1l-2.4-0.8c0,0-2.8,5.1-2.9,6c0,0.1,0,0.2,0,0.3c0,0.8,0.4,1.3,0.4,1.7c0,0.1,0.3,1.6,0.7,1.8
				c0.5,0.3,1,0.3,1.4,0.1c0,0,1.1,0.5,1.9,0.3c0,0,1,0.5,1.9,0C451.9,253.9,453,254.3,453.5,253.8z"/>
		</g>
		<g>
			<path class="st8" d="M451.4,193.6c-1,0.2-2.5,2.4-2.5,7.1c-0.1,5.1,1.2,7.5,1.6,8.7c0.4,1.3,3.1,9.7,2.9,10.8
				c-0.6,2.9-1.9,10.8-2.1,11.3c-0.3,1-3.1,12.6-3.1,12.6l6.1,2.7c0,0,3.5-13.1,4.7-17c0.5-1.6,1.8-5.9,2-10.4
				c0.2-4.3-1.2-14.2-1.4-15.1C459.3,203.6,458.3,192.3,451.4,193.6z"/>
		</g>
		<g>
			<path class="st17" d="M420.4,213.7C420.4,213.7,420.4,213.7,420.4,213.7L420.4,213.7L420.4,213.7z"/>
		</g>
	</g>
	<g>
		<path class="st7" d="M310.3,247c0,0,1.2,2.7,2.3,2.3c1.1-0.3,2.8-0.2,3.3-0.2c0.7,0.1,3-0.5,2.8,0.4c-0.1,0.9-3.7,1.1-4.5,1.2
			c-0.7,0.2,1.9,2.1,2.1,2.8c0.2,0.7-3.6,5-5.2,3.5c-1.7-1.5-2.4-4.2-2.7-4.5c-0.4-0.2-1.9-2.4-1.9-2.4L310.3,247z"/>
		<path class="st7" d="M316.1,253.2c0,0,4.8,5,4.8,5.6c0,0.6-0.3,0.8-0.8,0.4c-0.5-0.4-4.8-4.7-4.8-4.7s4.6,6.9,4.7,7.3
			c0.1,0.3-0.5,0.8-0.8,0.6c-0.3-0.2-5.3-6.8-5.3-6.8s4.3,6.4,4.3,6.9c0,0.4-0.7,0.7-1,0.3c-0.4-0.5-4.7-6.2-4.7-6.2
			s2.8,4.9,2.6,5.2c-0.2,0.2-0.6,0.7-1.3-0.6c-0.7-1.3-2.6-4.1-2.6-4.1L316.1,253.2z"/>
		<g>
			<path class="st18" d="M250.1,341.6c0,0-1.8,1.3-2.9,2.2c-1,0.9-2.4,1.9-3.3,4.3c-0.9,2.4,0.5,4.1,2.8,4.2
				c2.3,0.1,5.8-1.6,6.2-3.7c0.3-2.1,3-1.8,3.4-3.3c0.4-1.5-0.1-3.3-0.1-3.3L250.1,341.6z"/>
		</g>
		<g>
			<path class="st7" d="M250.4,339.8l-0.3,1.7c0,0,0.9,1.8,6.1,0.4l-0.3-1.7L250.4,339.8z"/>
		</g>
		<g>
			<path class="st18" d="M283.2,341.6c0,0,1.8,1.3,2.9,2.2c1,0.9,2.4,1.9,3.3,4.3c0.9,2.4-0.5,4.1-2.8,4.2c-2.3,0.1-5.8-1.6-6.2-3.7
				c-0.3-2.1-3-1.8-3.4-3.3c-0.4-1.5,0.1-3.3,0.1-3.3L283.2,341.6z"/>
		</g>
		<g>
			<path class="st7" d="M282.9,339.8l0.3,1.7c0,0-0.9,1.8-6.1,0.4l0.3-1.7L282.9,339.8z"/>
		</g>
		<g>
			<path class="st19" d="M285.1,299.6c0,3.8-1.5,39.9-1.5,39.9c-0.4,1.3-5.5,1.2-6.8,0.6c-1.3-0.6-1-36.1-1.3-39.9
				c-0.2-3.8-3.3-32-4.4-31.8c-1.1,0.1-7.4,26.6-8.3,29.5c-0.9,2.9-6,42.2-6,42.2c-4.3,1.5-7.1,0-7.1,0s1.7-39.6,1.7-44.3
				c0-1.7,0.5-3.1,1-12.3c0.4-7.1,2.3-21.6,3.7-31.5c0-0.4,0.1-0.7,0.1-1c0.3-1.9,0.5-3.4,0.5-4.1c0-0.3,0.1-0.5,0.1-0.5
				c0.4-0.2,0.7-0.3,1.1-0.5c9.3-3.3,27.1,0.2,27.1,0.2s0,0.1,0,0.3c0,0.2,0.1,0.5,0.1,0.9c0.1,0.9,0.3,2.2,0.4,3.7c0,0,0,0,0,0
				c0,0,0,0.1,0,0.1c0.6,5.4,0.9,8.4,1.4,14.2C287.1,266.5,285.1,295.8,285.1,299.6z"/>
		</g>
		<g>
			<path class="st20" d="M276.7,195c0,0,15.2,3.2,16.4,7.4c1.3,4.2,3.7,14.1,7.1,24.9c2,6.4,12.4,21.1,12.4,21.1s-5.9,4.4-5.9,3.8
				s-14-19.2-14.2-21.5c-0.2-2.3-4.4-13.9-4.4-13.9s-2,22.4-2,25.8c0,3.5,0.2,10.5,0.2,10.5s-5.6,2.2-16.5,1.6
				c0,0-17.4-0.6-14.4-5.9c2.2-4,0.9-30.9,0.5-31.1c-0.3-0.2-6.4,7.4-5.8,8.9c0.6,1.5,16.3,6.7,16.3,6.7s0.5,1.7-2,5.5
				c0,0-23.4-6.8-23.5-8.3c-0.1-1.4,9.7-29.3,12.9-30.7c4.6-2.1,16.7-5.4,16.7-5.4L276.7,195z"/>
		</g>
		<path class="st7" d="M272.4,201.2c-5.6,0.2-5.7-4.8-5.7-4.8s1.3-3.6,0.4-8.5c-0.9-4.9,9.3,1.8,9.3,1.8s-0.2,1.3-0.2,2.8
			c0,0.4,0.1,0.9,0.1,1.4h0c0.1,0.6,0.2,1.1,0.5,1.6C276.9,195.5,278,201,272.4,201.2z"/>
		<path class="st21" d="M270.6,233c0,0,1.4,0,1.9-0.1c0.4-0.1,0.1,0.9-0.4,1.1C271.6,234.1,270.6,233,270.6,233z"/>
		<path class="st20" d="M278.6,199l-1.6-5c0,0-2.6,1.2-9.9,0.4l-1.7,4.8C265.3,199.2,271.7,204.7,278.6,199z"/>
		<path class="st22" d="M280,231.6H274c-0.7,0-1.3,0.6-1.2,1.3l0,0.5c-0.7-0.2-2.2-0.4-2.2,1c0,1.5,1.1,4.6,2.7,4.8l0.2,2h7.2
			l0.7-8.3C281.3,232.2,280.7,231.6,280,231.6z M271.9,235.6c-0.1-1.4,0.4-1.6,0.9-1.4l0.3,4.1C272.6,238,272,237.3,271.9,235.6z"/>
		<path class="st23" d="M270.6,234.4c0,1.5,1.1,4.6,2.7,4.8l0.2,2h2.7c-0.6-2.4-0.3-7,0-9.6H274c-0.7,0-1.3,0.6-1.2,1.3l0,0.5
			C272.1,233.3,270.6,233.1,270.6,234.4z M272.8,234.2l0.3,4.1c-0.5-0.2-1.1-0.9-1.2-2.6C271.8,234.3,272.3,234,272.8,234.2z"/>
		<path class="st24" d="M278.4,239.2c0.5,0.2,2.3,0.2,2.4-6.5c0,0-2.2-0.6-2.1,0.2C278.6,232.9,277.9,239,278.4,239.2z"/>
		<path class="st7" d="M271.4,239.9c0,0-0.6,0.2-0.9,0.1c0,0-0.5-0.2-0.9-0.3c-0.1,0-0.2-0.1-0.3-0.1c-0.3,0-1,0-1.7-0.3
			c-0.7-0.3-3.1-1.5-3.1-1.5l0.7-2.2l0.5-1.8c0,0,4.1-1.1,4.8-0.9c0.1,0,0.1,0,0.2,0.1c0.6,0.2,0.9,0.6,1.2,0.8
			c0.1,0.1,1.1,0.7,1.2,1c0.1,0.5-0.1,0.8-0.3,1.1c0,0,0.1,1-0.3,1.5c0,0,0.1,0.9-0.5,1.4C271.9,238.7,271.9,239.6,271.4,239.9z"/>
		<path class="st20" d="M266.5,233.2c0,0,0.2,2.9-2,5.5c0,0-17.2-5.4-19.2-6.2c-2-0.8,7.4-26,7.4-26l7,2.4l-3.7,7.1
			c0,0-1.9,4-5.7,10.5C250.2,226.5,252.6,228.8,266.5,233.2z"/>
		<g>
			<path class="st13" d="M270.7,171.7c0,0,8.8-4.4,9.6,7.9c0.7,12.3-1.3,13.8-7.5,12.7c-6.2-1.1-7.6-8.7-8.8-12.4
				C262.8,176.3,267.8,172.5,270.7,171.7z"/>
		</g>
		<g>
			<path class="st25" d="M266,185.8c0,0-0.4-3.3,0.9-3.7c1.3-0.4,2.2,1.4,2.2,1.4l1.1-0.2c0,0-1.3-3.2-0.1-4.1
				c1.2-0.9,9-1.1,9.9-2.3c0.9-1.2-1.3-7.7-3.5-8.1c-2.2-0.4-8.1-1.1-11.4,2.5c0,0-3,1.7-2.9,4.3C262.4,178.3,264.7,184.2,266,185.8
				z"/>
		</g>
		<g>
			<path class="st13" d="M268.3,180.6c-0.5-1-2.8-0.7-2.4,1c0.4,1.7,2.6,4.1,3.3,3.5C269.9,184.6,269,182,268.3,180.6z"/>
		</g>
		<path class="st26" d="M276.4,193.9c-6.9-0.2-7.7-3.8-7.7-3.8c3.4,3,7.6,2.4,7.6,2.4C276.3,193,276.3,193.4,276.4,193.9z"/>
	</g>
	<g>
		<g>
			<g>
				<g>
					<path class="st7" d="M411,248c0,0,0.2,0,1.4,0.6c0.4,0.2,1.2,0.5,1.6,0.7c0.4,0.2,2.1,1,2.5,1.3c0.1,0.1,0.7,1.3,1.1,1.5
						c0.3,0.2,1,0.6,0.8,0.9c-0.2,0.3-1,0.1-1,0.1s0.3,0.2,0.2,0.5c-0.2,0.6-0.6,0.6-0.6,0.6s0.1,0.4,0,0.6
						c-0.3,0.5-0.7,0.5-0.7,0.5s0,0.3-0.3,0.6c-0.4,0.4-0.9,0.2-0.9,0.2s-0.4,0.5-0.7,0.5c-0.4-0.1-0.6-0.3-0.8-0.5
						c-0.3-0.1-2-1.9-2.7-3.7c-0.7-1.8-3.1-2.5-3.1-2.5L411,248z"/>
				</g>
			</g>
		</g>
		<g>
			<g>
				<path class="st27" d="M417.3,252.8c0,0-1.6-1.6-2.4-1.5c-0.8,0.1-0.2,0.7-0.2,0.7s-0.5-0.6-1.1-0.2c-0.5,0.4,0.1,1,0.1,1
					s-0.5-0.4-0.9,0.2c-0.4,0.6,0.3,1,0.3,1s-1-0.1-0.8,0.7c0.4,1.4,1.9,1.9,1.9,1.9s0.5,0.2,0.9-0.4c0,0,1,0.3,1.2-0.8
					c0,0,1.2-0.3,0.8-1.2C417.2,254.3,418.2,253.7,417.3,252.8z"/>
			</g>
		</g>
		<g>
			<g>
				<path class="st28" d="M376.3,184.8c0,0-4.8-0.5-6.6,4.2c-1.7,4.7-3.4,6.2-3.6,8.7c-0.8,9.9-5.5,7.7-4.2,13.4s2.2,6.6,2.2,6.6
					l11.1-2.2l11.2,0c0,0-4.4-2.2-3.4-6.9c1-4.7,3.4-12.3,2-17.6C383.7,185.8,379.2,185.2,376.3,184.8z"/>
			</g>
		</g>
		<g>
			<g>
				<g>
					<path class="st7" d="M342.3,248c0,0-0.9,0.2-1.4,0.6c-0.4,0.3-1.2,0.5-1.6,0.7c-0.4,0.2-2.1,1-2.5,1.3
						c-0.1,0.1-0.7,1.3-1.1,1.5c-0.3,0.2-1,0.6-0.8,0.9c0.2,0.3,1,0.1,1,0.1s-0.3,0.2-0.2,0.5c0.2,0.6,0.6,0.6,0.6,0.6
						s-0.1,0.4,0,0.6c0.3,0.5,0.7,0.5,0.7,0.5s0,0.3,0.3,0.6c0.4,0.4,0.9,0.2,0.9,0.2s0.4,0.5,0.7,0.5c0.4-0.1,0.6-0.3,0.8-0.5
						c0.3-0.1,2-1.9,2.7-3.7c0.7-1.8,3.3-3.2,3.3-3.2L342.3,248z"/>
				</g>
			</g>
		</g>
		<g>
			<g>
				<path class="st27" d="M336,252.8c0,0,1.6-1.6,2.4-1.5c0.8,0.1,0.2,0.7,0.2,0.7s0.5-0.6,1.1-0.2c0.5,0.4-0.1,1-0.1,1
					s0.5-0.4,0.9,0.2c0.4,0.6-0.3,1-0.3,1s1-0.1,0.8,0.7c-0.4,1.4-1.9,1.9-1.9,1.9s-0.5,0.1-0.8-0.4c0,0-1,0.3-1.2-0.8
					c0,0-1.1-0.3-0.7-1.2C336.3,254.2,335.2,253.8,336,252.8z"/>
			</g>
		</g>
		<g>
			<g>
				<path class="st7" d="M362.6,258.4c-0.6-1.3,1-12.6,1.4-15.7c0.4-3.1,1.2-8,0.3-10.9c-0.9-2.9-0.6-3.5-0.6-3.5s-4,8.5-4.3,10.2
					c-0.3,1.7-15.5,12.1-15.6,12.3c-0.2,0.2-7.4,1.1-2.1-2.6c0.8-0.5,12.1-10.7,12.2-11.8c0.1-1,4.8-18.3,7-20.6
					c3.6-3.8,11.9-6.2,11.9-6.2s2.6-1.4,7.1,0c4.5,1.4,9.9,5,11,6.1c1.1,1.1,7.8,20,8.6,22.1c0.7,2.1,1.4,2.7,4.5,4.8l7.2,5.3
					l-1.6,2.7l-13.5-6.6c-1.6-1-2.8-4.5-3.1-5.5c-0.2-0.9-4.7-11.1-4.7-11.1c0.1,2.4,0,5.1-1,7.9c-0.9,2.8-1.3,22.4-1.2,24
					c0,0,0.7,1.2-10.1,0.8C365.2,259.7,362.6,258.4,362.6,258.4z"/>
			</g>
		</g>
		<g>
			<g>
				<path class="st29" d="M395.3,226.6c0.1-0.1,0.2-0.2,0.1-0.3c-0.8-2.4-3.6-9.4-4.6-10.5c-1.1-1.1-6.5-4.7-11-6.1
					c-4.5-1.4-7.1,0-7.1,0s-8.4,2.3-11.9,6.2c-2,2.2-4.6,10.6-4.9,12.4c0,0.1,0,0.3,0.2,0.3l6,2.8c0.2,0.1,0.3,0,0.4-0.1
					c0.7-1.5,1.1-2.9,1.1-2.9s-0.3,0.6,0.6,3.5c0.9,2.9,0.2,7.8-0.3,10.9c-0.4,3.1-2,14.4-1.4,15.7c0,0,2.6,1.3,13.4,1.8
					c10.8,0.5,10.1-0.8,10.1-0.8c-0.1-1.6,0.2-21.2,1.2-24c0.9-2.8,1.1-5.4,1-7.9c0,0,0,1.1,0.5,1.9c0.1,0.1,0.2,0.1,0.3,0.1
					L395.3,226.6z"/>
			</g>
		</g>
		<g>
			<g>
				<path class="st7" d="M372.9,204.2c0,0,0.4,4.8-0.5,6.3c-0.9,1.4,0.8,3.4,4.4,2.7c3.6-0.7,3.4-2.7,3.4-2.7s-1-3-0.7-5.4
					C379.7,202.8,372.9,204.2,372.9,204.2z"/>
			</g>
		</g>
		<g>
			<g>
				<path class="st7" d="M370.6,210.3c0,0,3.2,7.3,7.4,8.8c0,0,4.4-3.5,3.3-8.9C381.3,210.2,375.7,207.6,370.6,210.3z"/>
			</g>
		</g>
		<g>
			<g>
				<path class="st7" d="M375.6,187.5c0,0-6.4,0.9-5.5,10.4c0.9,9.5,6.6,8.7,7,8.7c0.4,0,5.7,0.2,6.1-11.4
					C383.3,195.2,383.5,186.7,375.6,187.5z"/>
			</g>
		</g>
		<g>
			<g>
				<path class="st28" d="M376.4,190.9c0,0-3,3.2-4.4,4.7c-1.4,1.6-1.6,4.7-1.6,4.7s-2.3-2.9-1.4-6.2c1-3.3,3.3-9.8,9.2-7.8
					c5.9,2,6.1,10.8,5.4,15.1C383.6,201.4,381,191.8,376.4,190.9z"/>
			</g>
		</g>
		<g>
			<path class="st15" d="M378.8,206.2c0,0-2.7,1.4-5.5-0.8c0,0,1.1,1.8,2.9,1.9C378.1,207.4,378.8,206.2,378.8,206.2z"/>
		</g>
		<g>
			<g>
				<g>
					<g>
						<g>
							<g>
								<g>
									<path class="st13" d="M389.9,274.5c0,0,0.7,13.7,0.7,15.4c0,1.9,0.4,7.4,0.3,8.2c-0.2,0.8-13.9,33.2-13.9,33.2l-4.1-0.8
										c0,0,9.2-29,9.3-31.7c0.2-5-6.4-25.6-6.5-27.5C375.7,269.4,389.9,274.5,389.9,274.5z"/>
								</g>
							</g>
						</g>
					</g>
				</g>
			</g>
		</g>
		<g>
			<g>
				<path class="st30" d="M371.8,336c1.1,1.1,0.3,3.5,1,4.8c0.8,1.3,5.9,4.7,7.1,3.1c1.1-1.6-0.5-4.5-1.2-5.9
					c-0.7-1.5-1.6-5.6-1.5-7c0,0-0.8,0.5-2-0.5c-1.2-0.9-1.6-1.8-1.6-1.8c-0.7,1.3-1.3,2.4-1.7,2.9C370.4,333,370.7,334.9,371.8,336
					z"/>
			</g>
		</g>
		<g>
			<g>
				<path class="st30" d="M377.2,330.6c0,0,0.5,2.3,0.2,2.5s-3.5-0.8-3.6-1.7c-0.1-0.9-0.3-2.9-0.3-2.9S375.8,331.6,377.2,330.6z"/>
			</g>
		</g>
		<g>
			<g>
				<g>
					<g>
						<g>
							<g>
								<g>
									<path class="st13" d="M373.3,269.3c0,0-3,26-3,27.7c0,1.9-0.3,3.6-0.5,4.4c-0.2,0.8-1.9,29.2-1.9,29.2l-4.2-0.4
										c0,0-1-30.9-0.9-33.6c0.2-5-1.6-26.7-1.7-28.7S373.3,269.3,373.3,269.3z"/>
								</g>
							</g>
						</g>
					</g>
				</g>
			</g>
		</g>
		<g>
			<g>
				<path class="st30" d="M365.3,337.5c1.2,1,1.4,2.7,2.6,3.5c1.3,0.7,6.8,1.5,7-0.4c0.2-1.9-2.7-4.1-3.9-5.1
					c-1.3-1-2.5-4.1-3.1-5.3c0,0-0.5,0.8-2,0.6c-1.5-0.2-2.3-0.8-2.3-0.8c0.1,1.5-0.2,2.6-0.4,3.2
					C362.8,335,364.2,336.5,365.3,337.5z"/>
			</g>
		</g>
		<g>
			<g>
				<path class="st30" d="M367.9,329.8c0,0,1.1,2,1,2.3c-0.1,0.3-3.1,0.8-3.6,0.1c-0.5-0.7-1.6-2.4-1.6-2.4S367.1,331.3,367.9,329.8
					z"/>
			</g>
		</g>
	</g>
	<g>
		<g>
			<path class="st7" d="M355.7,206.8c0,0,4.1-4.6,4.6-4.6c0.5-0.1,0.7,0.2,0.4,0.6c-0.4,0.4-3.8,4.5-3.8,4.5s5.7-4.5,6.1-4.7
				c0.2-0.1,0.7,0.4,0.5,0.6c-0.2,0.3-5.5,5.1-5.5,5.1s5.3-4.2,5.7-4.2c0.3,0,0.7,0.5,0.3,0.9c-0.4,0.3-5.1,4.6-5.1,4.6
				s4-2.8,4.4-2.6c0.2,0.1,0.6,0.5-0.4,1.2c-1.1,0.7-3.4,2.6-3.4,2.6L355.7,206.8z"/>
		</g>
		<g>
			<g>
				<path class="st7" d="M351.8,212.9c0,0,1.2-1.6,0.8-2.7c-0.4-0.9-0.3-2.4-0.3-2.9c0-0.6-0.5-2.6,0.2-2.5c0.7,0.1,1.1,3.2,1.3,3.8
					c0.2,0.6,1.7-1.9,2.3-2.1c0.6-0.2,4.4,2.8,3.2,4.4c-1.2,1.6-3.5,2.4-3.7,2.7c-0.2,0.3-0.8,1.2-0.8,1.2L351.8,212.9z"/>
			</g>
		</g>
		<g>
			<g>
				<path class="st31" d="M325.1,178.9c0,0-5.5-0.1-7.2,4.4c-1.7,4.5-0.3,7.9,0.2,9.6c1.4,4.2,1.5,5.8,0.9,8.4
					c-0.5,2.3-1,3.5-1.6,5.6c-0.6,2.1,0.5,1.9,0.6,2c0.1,0.2,21,4.3,21,4.3s-0.7-5.3-2.2-7.4c-1-1.5-2.6-2-1.5-6.6
					c1.1-4.6,1.8-6.7,1.1-10c-0.8-3.8-1.3-6.2-5-8.7C329.3,179,326.8,178.7,325.1,178.9z"/>
			</g>
		</g>
		<g>
			<path class="st17" d="M319.8,236.2c-0.1,3.2-0.8,6.5-2.1,9.9c0,0-4.4,1.9-6.7-0.8c-0.9-1.1-1.7-4.8-2.1-9.5
				c-0.6-7.3,1.4-17.7,4-24.1C313,211.6,320.4,222.6,319.8,236.2z"/>
		</g>
		<g>
			<path class="st17" d="M319.8,236.2c-0.1,3.2-0.8,6.5-2.1,9.9c0,0-4.4,1.9-6.7-0.8c-0.9-1.1-1.7-4.8-2.1-9.5L319.8,236.2z"/>
		</g>
		<g>
			<path class="st32" d="M338.6,226c1.5,2.2,3.5,4.5,5,4.4c1,0,13.4-16.5,13.3-17.3c0-0.9-4.7-2.1-4.7-2.1s-2.2,3.9-4.2,5.5
				c-2,1.6-4.4,5.1-4.9,5.5c-0.5,0.4-2.4-3.6-2.4-3.6c-0.6-1.9-1.4-5.3-3.3-8.4c-1.8-3.1-5.8-4.4-5.8-4.4
				c-7.7,3.6,4.6,16.5,4.6,16.5S337.9,225,338.6,226z"/>
		</g>
		<g>
			<g>
				<path class="st32" d="M329.8,202.6c0,0,6.2,4.3,8.4,14.8c0,0-5.9-11.1-7.8-13.1C330.4,204.3,329.6,203.5,329.8,202.6z"/>
			</g>
		</g>
		<g>
			<g>
				<path class="st32" d="M339.6,220c0,0,0.3,24.3,0.5,30c0.2,5.6-7.3-13.4-7.3-13.4S336.4,224.7,339.6,220z"/>
			</g>
		</g>
		<g>
			<g>
				<path class="st32" d="M308.5,279c0,0,17.4-2.2,28.1,3.8c10.8,5.9-10.2-17.9-10.2-17.9S308.6,272.2,308.5,279z"/>
			</g>
		</g>
		<g>
			<g>
				<g>
					<path class="st33" d="M346.8,331.5c0,0,1,2.4,2.3,3c1.3,0.6,4.2,3.2,5.4,3.4c1.2,0.2,4,0.4,4.1,1.8c0.2,1.5-0.1,2.8-5.7,2.1
						c-5.6-0.7-11-3.2-11-3.2s-1.2-5.7,0.6-8.5C344.2,327.3,346.8,331.5,346.8,331.5z"/>
				</g>
			</g>
		</g>
		<g>
			<g>
				<path class="st7" d="M346.8,331.5l-1.1-3.5l-4,0.1l0.1,3.8C341.7,331.8,347.9,334,346.8,331.5z"/>
			</g>
		</g>
		<g>
			<g>
				<g>
					<path class="st33" d="M311.4,325.4c0,0,0.4,2.5,1.1,3.3c0.6,0.8,1.6,4.4,2.9,5.6c1.3,1.1,4.5,3.7,3.5,5.1
						c-0.9,1.3-7.7-0.3-10.1-4.3c-2.5-4-3.3-4.5-3-5.6c0.3-1.1,2.5-5.4,2.4-5.9C308.1,323.1,311.4,325.4,311.4,325.4z"/>
				</g>
			</g>
		</g>
		<g>
			<g>
				<path class="st7" d="M312.3,323.6c0,0-0.8,1.2-0.9,1.8c-0.2,0.7-1.6,1-2.8-0.5c0,0-0.4-0.5-0.3-1.4c0-0.9,1-3,1-3L312.3,323.6z"
					/>
			</g>
		</g>
		<g>
			<g>
				<g>
					<path class="st11" d="M328.1,265.5c0.2,1,1.6,5.2,3.2,9.9c0,0,0,0,0,0c0.5,1.3,0.9,2.7,1.4,4.1c1,3,1.9,5.8,2.6,7.8
						c0.4,1.1,0.6,2,0.8,2.5c0.9,3.5,0,9.1-0.2,13.8c-0.2,4.7,5.1,27.5,5.1,27.5c1.2,0.5,6.4-1,6.4-1c-0.9-1.6-2.5-30.1-2.1-31.9
						c0.4-1.8,0.7-6.9,0.2-8.8c-0.1-0.4-0.2-0.9-0.2-1.6c-0.1-2.5,0.4-6.6,0.6-11.1c0.3-5.7-2.1-19.8-2.5-21c0-0.1-0.1-0.3-0.1-0.5
						c-0.6-2-2.6-7.6-2.6-7.6c-3.8-1.1-6.7-1.2-8.8-0.8c-2.8,0.6-4.3,2.3-5.1,4.5C325.1,256.5,327.8,264.2,328.1,265.5z"/>
				</g>
			</g>
		</g>
		<g>
			<g>
				<g>
					<path class="st11" d="M307.4,323l5.2,2.1c0.6-3.2,14.7-25.3,15.6-27.8c0.9-2.5,1.9-7.2,1.8-8.9c0-0.3,0-0.8,0-1.5
						c0.1-2.6,0.5-7.6,1.2-11.5c0.1-0.7,0.2-1.4,0.4-2c0.7-3.3,0.7-14.7,0.6-21.4c0-3-0.1-5-0.1-5s-0.1-0.1-0.2-0.1
						c-1.5-1.1-10.8-7.5-13.9-1.3c-0.8,1.7-1.3,3.4-1.7,5.3c-0.9,5.6-1.6,12.8-0.7,18.6c0.8,4.9,2.4,10.5,3.6,15.5
						c0.6,2.8,1.2,5.8,0.5,6.9c-1.8,3.2-3.5,5.9-7,17.1C311.7,312.5,307.4,323,307.4,323z"/>
				</g>
			</g>
		</g>
		<g>
			<g>
				<g>
					<path class="st34" d="M319.4,235.8c-0.8,3.4-4.8,20.2-4.7,21.2c0,0.4,4.8,1.1,9.1,1.8c7.2,1.1,16.4-1.7,19.5-3.7c0,0,0,0,0,0
						c-0.1-0.2-4.6-16-4.9-17.8c-0.3-1.8,0.2-8.7,0.4-10.7c0-0.7,0.3-1.8,0.7-2.9v0c0.6-1.9,1.3-4,1.2-5.2c0-0.9-0.3-1.8-0.7-2.7
						l0,0c-0.4-1-1.1-2-1.8-3.1c-0.4-0.7-0.9-1.3-1.3-2c-1.5-2.1-3-4-3.7-4.7c-0.5-0.5-1-0.9-1.5-1.1c0,0,0,0,0,0
						c-0.6-0.4-1.1-0.6-1.4-0.7c0,0,0,0,0,0c-0.1,0-0.1-0.1-0.1-0.1l-6.3-0.9c0,0-0.7,0.3-1.6,0.6c-1.1,0.4-2.7,0.9-4,1.3
						c0,0,0,0,0,0c-0.2,0.1-0.4,0.1-0.6,0.1c0,0-1.1,0.4-2.2,1.7c-1.1,1.2-2.2,3.2-2.1,7.3c0,3.6,4.3,12,4.9,14.6
						C319.1,231.6,320.1,232.4,319.4,235.8z"/>
				</g>
			</g>
		</g>
		<g>
			<g>
				<g>
					<path class="st20" d="M331.7,205l3.7,5.7l3.4,5.2c0,0-0.2-0.8-0.7-3.1c-0.1-0.4-0.2-0.9-0.3-1.5c0-0.2-0.1-0.3-0.1-0.5
						c0,0,0,0,0,0C336.3,207.5,331.9,205.1,331.7,205C331.7,205,331.7,205,331.7,205z"/>
				</g>
			</g>
		</g>
		<g>
			<g>
				<g>
					<path class="st7" d="M322.6,204c0,0,0.1-7.4-0.6-8.6c-0.6-1.2,7.7,4.8,7.7,4.8s0,0.3,0,0.5c0,0,0,0.1,0,0.1
						c0,0.7,0,0.8,0.1,1.4c0,0.1,0,0.2,0,0.2c0.1,1,0.4,2,0.8,2.9C331.5,207.3,322.6,204,322.6,204z"/>
				</g>
			</g>
		</g>
		<g>
			<g>
				<path class="st32" d="M337.8,210.7L337.8,210.7c0,0,0.2,0.4,0.4,2l-1.3-2c0,0-2.4-3.3-3.2-4.2c-0.8-0.9-1.9-1.6-1.9-1.6
					S336.4,207.1,337.8,210.7z"/>
			</g>
		</g>
		<g>
			<g>
				<path class="st7" d="M330.2,204.2c0,0,4.3,6.4,2.9,7c-1.4,0.6-9.1-0.6-12.5-6.7C320.6,204.5,325.5,201.9,330.2,204.2z"/>
			</g>
		</g>
		<g>
			<g>
				<path class="st35" d="M338.8,226.7c0-0.1,0-0.1,0-0.1c0,0,0,0,0,0C338.8,226.6,338.8,226.7,338.8,226.7z"/>
			</g>
		</g>
		<g>
			<g>
				<path class="st20" d="M320.5,215.7c0,0-5.4-1.8-7-1.9c0,0,1.1-9.5,6.6-8.7C325.6,205.9,320.5,215.7,320.5,215.7z"/>
			</g>
		</g>
		<g>
			<g>
				<path class="st34" d="M329.9,203.1c0,0-0.3,1.2-7.3-0.8l-0.3,1.6c0,0-0.9,0.2-3.4,1.2c0,0,12.7,11.6,14.5,6.8
					c1.8-4.8-3-7.5-3-7.5L329.9,203.1z"/>
			</g>
		</g>
		<g>
			<g>
				<path class="st34" d="M330.4,204.3l9.7,11.6c-0.4-1-1.1-2-1.8-3.1c-0.4-0.7-0.9-1.3-1.3-2c-1.5-2.1-3-4-3.7-4.7
					c-0.5-0.5-1-0.9-1.5-1.1c0,0,0,0,0,0C331.1,204.6,330.6,204.4,330.4,204.3C330.4,204.3,330.4,204.3,330.4,204.3z"/>
			</g>
		</g>
		<g>
			<g>
				<path class="st32" d="M338.8,226.6c0.6-1.9,2.2-6.2,2-8.1c-0.1-0.9-0.4-1.8-0.8-2.7l0,0c-0.4-1-1.1-2.1-1.8-3.2
					c-0.4-0.7-1.2-1.7-1.7-2.4c-1.5-2.1-2.6-3.5-3.3-4.1c-0.5-0.5-1-0.9-1.5-1.2c0,0,0,0,0,0c-0.6-0.4-1.1-0.6-1.4-0.7c0,0,0,0,0,0
					C330.4,204.3,340.5,213.1,338.8,226.6z"/>
			</g>
		</g>
		<g>
			<g>
				<path class="st7" d="M317.6,244.5c0,0,0.7,1,1.1,1.2c0.4,0.2,0.9,1.2,0.9,1.2l-2.7,2c0,0-1-2.3-2.3-3
					C313.4,245.2,317.6,244.5,317.6,244.5z"/>
			</g>
		</g>
		<g>
			<g>
				<g>
					<path class="st32" d="M312.9,210.8c0,0,2.1-6.4,6.7-4.5c4.4,1.8-1.4,9.7-1.9,10.7c-0.5,1-5.4,8.7-5.9,9.7
						c-1.5,3.3-1,4.9-0.4,6.4c1.9,5.2,5.5,10.1,6.4,10.9c0.9,0.8-2.6,3.9-4,3c-1.9-1.2-5.3-7.8-6.2-9.3c-1.1-1.8-4-5.1-2.1-10.9
						C306.8,223,312.9,210.8,312.9,210.8z"/>
				</g>
			</g>
		</g>
		<g>
			<g>
				<path class="st36" d="M320.3,245l-5.7,4.8c0,0,4.7,6.8,6.8,3.9C323.5,250.7,320.3,245,320.3,245z"/>
			</g>
		</g>
		<g>
			<path class="st32" d="M332,218.5L332,218.5c-1.1-10.2-9.4-16.3-9.4-16.3l-0.3,1.5l0,0c-8.4,2.5-8.6,4.4-8.9,10
				c-0.1,2.2,0.5,5,1.4,8.1c0.3,1.3,0.7,2.5,1.1,3.8c1.1,3.8,2,7.7,1.9,10.7c-0.3,6.6-17.4,35.8-17.4,35.8
				c0.1,6.1,15.5,14.6,15.5,14.6C315,278.8,333.5,226.6,332,218.5z"/>
		</g>
		<g>
			<g>
				<path class="st37" d="M315.9,225.7L315.9,225.7c2.6-3.1,4-12.2,4-12.2c-1.5,4.4-5,8.3-5,8.3s0,0,0,0
					C315.1,223.1,315.5,224.4,315.9,225.7z"/>
			</g>
		</g>
		<g>
			<g>
				<path class="st38" d="M331.3,275.4C331.3,275.4,331.3,275.4,331.3,275.4c0.5,1.3,0.9,2.7,1.4,4.1c2-8.2,2.2-17.3,2.2-17.3
					C334.3,267.3,331.3,275.4,331.3,275.4z"/>
			</g>
		</g>
		<g>
			<g>
				<path class="st17" d="M315.2,233.1l-0.6-0.9c0.1-0.1,5.8-3.8,6.8-10.4c0.7-4.8-1.3-10-5.8-15.2l0.9-0.7c4.7,5.5,6.7,11,5.9,16.1
					C321.5,229.1,315.5,233,315.2,233.1z M315,232.7l-0.3-0.4h0L315,232.7z"/>
			</g>
		</g>
		<g>
			<path class="st17" d="M315.7,206.6c0,0,0.3-0.4,0.9-0.7C316.7,206,316.5,206.6,315.7,206.6z"/>
		</g>
		<g>
			<g>
				<path class="st13" d="M329.4,181.7c0,0,6.1,3.8,4.3,13.4c-1.8,9.6-9,4.4-9.8,3.9c-0.8-0.5-3.3-6.5-3.4-9.1
					C320.3,187.5,318.9,177.7,329.4,181.7z"/>
			</g>
		</g>
		<g>
			<g>
				<path class="st31" d="M329,183.6c-0.6-0.2-2.7,4-3.8,5c-1.1,1-3.2,3.6-3.4,6.4c-0.2,2.8-2.7-6.1-1.9-9.4
					c0.8-3.3,1.8-8.2,9.2-4.4c7.4,3.7,5.6,10.6,5.6,10.6S332.2,184.5,329,183.6z"/>
			</g>
		</g>
		<g>
			<g>
				<path class="st13" d="M324,190.3c-0.2-1.1-2.7-2-2.7-0.3c0.1,1.7,1.5,3.6,2.2,3.5C324.4,193.3,324.2,191.3,324,190.3z"/>
			</g>
		</g>
		<g>
			<path class="st39" d="M329.7,202.3L329.7,202.3c-4.4,0-5.9-3.2-5.9-3.2c3.1,2.2,5.5,1.8,5.8,1.7c0,0,0,0.1,0,0.1
				C329.7,201.6,329.7,201.7,329.7,202.3z"/>
		</g>
	</g>
	<g>
		<g>
			<g>
				<g>
					<g>
						<g>
							<path class="st40" d="M363.4,246.8L363.4,246.8l22.8,1.4c0,0,5.4,21,4.5,27.3c0,0-33,5.1-32.7,3.5
								c1.7-10.5,1.5-22.1,1.5-22.1C359.8,253.1,361.1,249.6,363.4,246.8z"/>
						</g>
					</g>
				</g>
			</g>
		</g>
	</g>
	<g>
	</g>
	<g>
	</g>
	<g>
	</g>
	<g>
	</g>
	<g>
	</g>
	<g>
	</g>
	<g>
	</g>
	<g>
	</g>
	<g>
	</g>
	<g>
	</g>
	<g>
	</g>
	<g>
	</g>
	<g>
	</g>
	<g>
	</g>
	<g>
	</g>
</g>
</svg>
