<?xml version="1.0" encoding="utf-8"?>
<!-- Generator: Adobe Illustrator 22.0.0, SVG Export Plug-In . SVG Version: 6.00 Build 0)  -->
<svg version="1.1" xmlns="http://www.w3.org/2000/svg" xmlns:xlink="http://www.w3.org/1999/xlink" x="0px" y="0px"
	 viewBox="0 0 600 600" style="enable-background:new 0 0 600 600;" xml:space="preserve">
<style type="text/css">
	.st0{filter:url(#Adobe_OpacityMaskFilter);}
	.st1{clip-path:url(#SVGID_2_);}
	.st2{clip-path:url(#SVGID_2_);mask:url(#SVGID_3_);fill:url(#SVGID_4_);}
	.st3{clip-path:url(#SVGID_2_);fill:url(#Sti_1_);}
	.st4{filter:url(#Adobe_OpacityMaskFilter_1_);}
	.st5{filter:url(#Adobe_OpacityMaskFilter_2_);}
	.st6{mask:url(#SVGID_5_);fill:url(#SVGID_6_);}
	.st7{fill:url(#SVGID_7_);}
	.st8{fill:url(#SVGID_8_);}
	.st9{fill:url(#SVGID_9_);}
	.st10{fill:url(#SVGID_10_);}
	.st11{fill:url(#SVGID_11_);}
	.st12{fill:#D4E9F9;}
	.st13{fill:url(#SVGID_12_);}
	.st14{fill:url(#SVGID_13_);}
	.st15{fill:#42B262;}
	.st16{fill:#006837;}
	.st17{fill:#5C8232;}
	.st18{fill:url(#SVGID_14_);}
	.st19{fill:url(#SVGID_15_);}
	.st20{fill:url(#SVGID_16_);}
	.st21{fill:url(#SVGID_17_);}
	.st22{fill:#385A36;}
	.st23{fill:url(#SVGID_18_);}
	.st24{fill:#325743;}
	.st25{fill:url(#SVGID_19_);}
	.st26{fill:url(#SVGID_20_);}
	.st27{fill:url(#SVGID_21_);}
	.st28{filter:url(#Adobe_OpacityMaskFilter_3_);}
	.st29{filter:url(#Adobe_OpacityMaskFilter_4_);}
	.st30{mask:url(#SVGID_22_);fill:url(#SVGID_23_);}
	.st31{fill:url(#SVGID_24_);}
	.st32{fill:url(#SVGID_25_);}
	.st33{fill:#F0DDD5;}
	.st34{fill:#FFEBE3;}
	.st35{fill:#EDDAD3;}
	.st36{fill:#353A3D;}
	.st37{fill:#323657;}
	.st38{fill:#FBB03B;}
	.st39{fill:#D9997A;}
	.st40{fill:#D6C6BF;}
	.st41{fill:#EEA987;}
	.st42{fill:#1F4A6E;}
	.st43{fill:#A1725B;}
	.st44{fill:#E9EDFF;}
	.st45{fill:#73A5F5;}
	.st46{fill:#C9B9B3;}
	.st47{fill:#EEA886;}
	.st48{fill:#0B7A53;}
	.st49{fill:#FCCCA2;}
	.st50{filter:url(#Adobe_OpacityMaskFilter_5_);}
	.st51{clip-path:url(#SVGID_2_);mask:url(#SVGID_26_);}
	.st52{filter:url(#Adobe_OpacityMaskFilter_6_);}
	.st53{opacity:0.3;fill:#869AC2;}
	.st54{fill:url(#SVGID_27_);}
	.st55{fill:#2D3038;}
	.st56{opacity:0.1;fill:#B8B8B8;}
	.st57{fill:#3F444F;}
</style>
<g id="Layer_1">
</g>
<g id="Layer_2">
	<g>
		<defs>
			<rect id="SVGID_1_" x="0" y="0" width="600" height="600"/>
		</defs>
		<clipPath id="SVGID_2_">
			<use xlink:href="#SVGID_1_"  style="overflow:visible;"/>
		</clipPath>
		<defs>
			<filter id="Adobe_OpacityMaskFilter" filterUnits="userSpaceOnUse" x="-978" y="-789.4" width="1718.8" height="1586.4">
				<feFlood  style="flood-color:white;flood-opacity:1" result="back"/>
				<feBlend  in="SourceGraphic" in2="back" mode="normal"/>
			</filter>
		</defs>
		<mask maskUnits="userSpaceOnUse" x="-978" y="-789.4" width="1718.8" height="1586.4" id="SVGID_3_">
			<g class="st0">
				<g>
					<path class="st1" d="M-1804.4,564.5c0,0,1138-28.7,1401.7,36c107.1,26.3,202.7,47.1,354,17C147.7,578.4,222.1,627.7,285,682
						c18.6,16,39.9,28.6,63,36.8c59.4,21.2,188.2,46.2,395.4,13.2v138.2h-2547.8C-1804.5,870.3-1805.2,563.7-1804.4,564.5z"/>
				</g>
				<path class="st1" d="M743.9-430c0,0-663.4,17-920.8,492c-167.5,309.2-1398.1,446.1-1625.3,253.4V-842l2547.5,3.5L743.9-430z"/>
				<path class="st1" d="M736.5-430"/>
				<line class="st1" x1="-1799.9" y1="-590.2" x2="736.5" y2="-590.2"/>
			</g>
		</mask>
		<linearGradient id="SVGID_4_" gradientUnits="userSpaceOnUse" x1="-634.9364" y1="-118.325" x2="1218.198" y2="320.0141">
			<stop  offset="1.036270e-02" style="stop-color:#0B7A53"/>
			<stop  offset="1" style="stop-color:#1F4A6E"/>
		</linearGradient>
		<rect x="-978" y="-789.4" class="st2" width="1718.8" height="1586.4"/>
		<linearGradient id="Sti_1_" gradientUnits="userSpaceOnUse" x1="-119.7673" y1="561.9069" x2="-119.7673" y2="312.708">
			<stop  offset="0" style="stop-color:#EAD7BB"/>
			<stop  offset="1" style="stop-color:#FBB03B"/>
		</linearGradient>
		<rect id="Sti_7_" x="-978" y="457.6" class="st3" width="1716.5" height="84.2"/>
		<g class="st1">
			<g>
				<g>
					<defs>
						<filter id="Adobe_OpacityMaskFilter_1_" filterUnits="userSpaceOnUse" x="-264.7" y="-6" width="1004.3" height="321.1">
							<feFlood  style="flood-color:white;flood-opacity:1" result="back"/>
							<feBlend  in="SourceGraphic" in2="back" mode="normal"/>
						</filter>
					</defs>
					<mask maskUnits="userSpaceOnUse" x="-264.7" y="-6" width="1004.3" height="321.1" id="SVGID_5_">
						<g class="st4">
							<defs>
								<filter id="Adobe_OpacityMaskFilter_2_" filterUnits="userSpaceOnUse" x="-358.6" y="-6" width="1098.2" height="321.1">
									<feFlood  style="flood-color:white;flood-opacity:1" result="back"/>
									<feBlend  in="SourceGraphic" in2="back" mode="normal"/>
								</filter>
							</defs>
							<mask maskUnits="userSpaceOnUse" x="-358.6" y="-6" width="1098.2" height="321.1" id="SVGID_5_">
								<g class="st5">
								</g>
							</mask>
							<linearGradient id="SVGID_6_" gradientUnits="userSpaceOnUse" x1="190.4988" y1="-11.9957" x2="190.4988" y2="193.5462">
								<stop  offset="0" style="stop-color:#FFFFFF"/>
								<stop  offset="1" style="stop-color:#000000"/>
							</linearGradient>
							<path class="st6" d="M739.6,66.6V315H-281.6c-1.7-1.7-3.4-3.4-5.1-5.1c-7.3-7.4-14.1-15-20.4-22.8c-3.3-4-6.4-8.1-9.4-12.2
								c-0.4-0.5-0.7-1-1-1.4c-9.9-13.9-18.3-28.2-24.8-42.7c-6.1-13.7-10.7-27.7-13.3-41.7c-6.3-32.6-2.8-65.4,13-96.3V122h57.2
								V52.5h45.2v29.3h23.5l20.3-20.3h23.1V-6h64.7V94h66.1v24.1h25.6V81.7h97.7V122h37.4V66.6h57v82.7h3.3V37.9h50.2v28.7h42.6
								V122h57.2V52.5h45.1v29.3h23.5l20.3-20.3h23.1V-6h64.6V94h66.1v24.1h25.6V81.7h51.4V122H732V66.6H739.6z"/>
						</g>
					</mask>
					<linearGradient id="SVGID_7_" gradientUnits="userSpaceOnUse" x1="237.4268" y1="-11.9957" x2="237.4268" y2="193.5462">
						<stop  offset="0" style="stop-color:#B1D9F9"/>
						<stop  offset="1" style="stop-color:#FFFFFF"/>
					</linearGradient>
					<path class="st7" d="M739.6,66.6V315h-927.3c-1.7-1.7-3.4-3.4-5.1-5.1c-7.3-7.4-14.1-15-20.4-22.8c-3.3-4-6.4-8.1-9.4-12.2
						c-0.4-0.5-0.7-1-1-1.4c-9.9-13.9-18.3-28.2-24.8-42.7c-6.1-13.7-10.7-27.7-13.3-41.7c-6.3-32.6-2.8-65.4,13-96.3V122h57.2V52.5
						h45.2v29.3h23.5l20.3-20.3h23.1V-6h64.7V94h66.1v24.1h25.6V81.7h26.7V122h14.5V66.6h57v82.7h3.3V37.9h50.2v28.7h42.6V122h57.2
						V52.5h45.1v29.3h23.5l20.3-20.3h23.1V-6h64.6V94h66.1v24.1h25.6V81.7h51.4V122H732V66.6H739.6z"/>
					<linearGradient id="SVGID_8_" gradientUnits="userSpaceOnUse" x1="506.408" y1="257.5839" x2="506.408" y2="-104.4772">
						<stop  offset="0.3429" style="stop-color:#8FAF7E"/>
						<stop  offset="1" style="stop-color:#736357"/>
					</linearGradient>
					<rect x="387" y="-104.5" class="st8" width="238.8" height="362.1"/>
					<linearGradient id="SVGID_9_" gradientUnits="userSpaceOnUse" x1="-406.8935" y1="181.1826" x2="-406.8935" y2="-123.9914">
						<stop  offset="0.1952" style="stop-color:#8FAF7E"/>
						<stop  offset="1" style="stop-color:#736357"/>
					</linearGradient>
					<path class="st9" d="M-354.2-60v317.6h-56.9c-11.7-16.3-21.5-33.2-29.2-50.3c-7.2-16.2-12.6-32.6-15.7-49.1
						c-7.4-38.4-3.3-77,15.3-113.4c9.9-19.5,24-38.3,42.5-56.1C-380.9-27.8-366.5-44.1-354.2-60z"/>
					<linearGradient id="SVGID_10_" gradientUnits="userSpaceOnUse" x1="-273.1738" y1="170.4662" x2="-273.1738" y2="-177.4776">
						<stop  offset="0.2621" style="stop-color:#8FAF7E"/>
						<stop  offset="0.629" style="stop-color:#736357"/>
					</linearGradient>
					<polygon class="st10" points="-327.7,257.6 -218.6,257.6 -218.6,13.2 -327.7,-11.2 					"/>
					<linearGradient id="SVGID_11_" gradientUnits="userSpaceOnUse" x1="293.7122" y1="149.8163" x2="293.7122" y2="-145.4783">
						<stop  offset="0.1263" style="stop-color:#8FAF7E"/>
						<stop  offset="0.8179" style="stop-color:#736357"/>
					</linearGradient>
					<rect x="220" y="33.9" class="st11" width="147.5" height="223.7"/>
					<path class="st12" d="M7.7-50.9c-3.4,0-6.6,0.5-9.5,1.4c-3.9-9.5-13.6-16.2-25-16.2c-7.1,0-13.5,2.6-18.3,6.9
						c-7.5-4.4-16.7-7-26.7-7c-5.7,0-11.1,0.8-16.2,2.4c-6.6-16.1-23.1-27.4-42.3-27.4c-21.4,0-39.3,14-44.1,33
						c-3.7-1.4-7.7-2.2-11.9-2.2c-17.8,0-32.2,13.7-32.2,30.6h47.1h17.3h36.9h28.1H-79h27.9h10.2h14.5h7.3h16.6h37.1
						C34.5-41.3,22.5-50.9,7.7-50.9z"/>
					<linearGradient id="SVGID_12_" gradientUnits="userSpaceOnUse" x1="244.7061" y1="-102.2069" x2="476.582" y2="-102.2069">
						<stop  offset="0" style="stop-color:#B1E1E6"/>
						<stop  offset="1" style="stop-color:#F2F5FF"/>
					</linearGradient>
					<path class="st13" d="M437-107.2c-5,0-9.7,0.7-14.1,2.1c-5.8-14-20.1-23.9-36.9-23.9c-18.6,0-34.3,12.3-38.5,28.7
						c-3.2-1.2-6.7-1.9-10.4-1.9c-5.1,0-9.8,1.3-13.9,3.5c-4.6-8.4-13.9-14.2-24.6-14.2c-13.1,0-24,8.6-26.9,20.1
						c-2.3-0.9-4.7-1.3-7.3-1.3c-10.9,0-19.7,8.4-19.7,18.7h28.8h10.6h22.5h17.2H362c0,0,0-0.1,0-0.1h3.2h32.2h24.5h54.7
						C476.6-93,458.9-107.2,437-107.2z"/>
					<linearGradient id="SVGID_13_" gradientUnits="userSpaceOnUse" x1="149.6209" y1="372.2113" x2="149.6209" y2="160.5138">
						<stop  offset="0" style="stop-color:#22B573"/>
						<stop  offset="1" style="stop-color:#20603D"/>
					</linearGradient>
					<path class="st14" d="M459.3,409.6C155,363.5,60.4,494-167.8,423.6c-47.1-14.6-91.2-35.4-130-60.6
						c-20.4-13.2-39.3-27.6-56.5-42.8c-5-4.5-9.9-9-14.6-13.6c-2-2-4-4-6-6c-8.6-8.7-16.6-17.7-24-26.9c-3.9-4.7-7.5-9.5-11.1-14.4
						c-0.4-0.6-0.8-1.1-1.2-1.7c-11.7-16.3-21.5-33.2-29.2-50.3H739.6V371C739.6,371,736.3,451.6,459.3,409.6z"/>
					<path class="st15" d="M459.3,409.6c-303.7-50-398.9,84.4-627.1,14c-47.1-14.6-91.2-35.4-130-60.6
						c-20.4-13.2-39.3-27.6-56.5-42.8c-5-4.5-9.9-9-14.6-13.6c-2-2-4-4-6-6H739.6V371C739.6,371,736.1,455.1,459.3,409.6z"/>
					<path class="st15" d="M739.6,259.3v14.4H-398.9c-3.9-4.7-7.5-9.5-11.1-14.4H739.6z"/>
					<path class="st16" d="M-268.4,207.3h-172c-7.2-16.2-12.6-32.6-15.7-49.1c25.6,13.6,15.3,30.3,14.8,31.1c1.1-0.6,27.8-14.8,48,0
						c0,0,16.1-32.2,39.1-19.8c1.7,0.9,3.5,2.1,5.3,3.6c0,0,10.8-5.8,21.2-5.5c8,0.2,15.8,4,18.1,17c0,0,26.8-14.2,32,10.8
						C-277.7,195.5-268.4,200-268.4,207.3z"/>
					<path class="st16" d="M112.9,207.3c0,0-4.7-23.4,17-19.7c0,0,6.9-27.2,31.5-17c24.6,10.1,15.2,24.1,15.2,24.1s19.2-10.6,33.6,0
						c0,0,13-26.1,31.1-11.4c0,0,23.9-12.8,27.5,8.1c0,0,18.8-10,22.4,7.6c0,0,6.5,3.1,6.5,8.3H112.9z"/>
					<path class="st16" d="M75.1,207.3c0,0-2.9-14.6,10.6-12.2c0,0,4.3-16.9,19.6-10.6c15.3,6.3,9.5,15,9.5,15s11.9-6.6,21,0
						c0,0,8.1-16.3,19.4-7.1c0,0,14.9-8,17.1,5c0,0,11.7-6.2,14,4.7c0,0,4.1,2,4.1,5.2H75.1z"/>
					<path class="st16" d="M213.7,207.3c0,0-5.9-29.2,21.2-24.5c0,0,8.6-33.8,39.2-21.2c30.6,12.6,18.9,30,18.9,30s23.9-13.3,41.9,0
						c0,0,16.2-32.5,38.7-14.2c0,0,29.7-15.9,34.2,10c0,0,23.4-12.4,27.9,9.5c0,0,8.1,3.9,8.1,10.3H213.7z"/>
					<path class="st16" d="M341.6,207.3c0,0-4.7-23.4,17-19.7c0,0,6.9-27.2,31.5-17c24.6,10.1,15.2,24.1,15.2,24.1s19.2-10.6,33.6,0
						c0,0,13-26.1,31.1-11.4c0,0,23.9-12.8,27.5,8.1c0,0,18.8-10,22.4,7.6c0,0,6.5,3.1,6.5,8.3H341.6z"/>
					<path class="st16" d="M396,207.3c0,0-4.7-23.4,17-19.7c0,0,6.9-27.2,31.5-17c24.6,10.1,15.2,24.1,15.2,24.1s19.2-10.6,33.6,0
						c0,0,13-26.1,31.1-11.4c0,0,23.9-12.8,27.5,8.1c0,0,18.8-10,22.4,7.6c0,0,6.5,3.1,6.5,8.3H396z"/>
					<path class="st17" d="M543.2,207.3c0,0-2.4-11.7,8.5-9.8c0,0,3.4-13.6,15.7-8.5c12.3,5.1,7.6,12,7.6,12s9.6-5.3,16.8,0
						c0,0,6.5-13.1,15.6-5.7c0,0,11.9-6.4,13.7,4c0,0,9.4-5,11.2,3.8c0,0,3.3,1.6,3.3,4.2H543.2z"/>
					<linearGradient id="SVGID_14_" gradientUnits="userSpaceOnUse" x1="574.7995" y1="351.7545" x2="574.7995" y2="-143.5524">
						<stop  offset="0" style="stop-color:#426120"/>
						<stop  offset="1" style="stop-color:#1F4A6E"/>
					</linearGradient>
					<rect x="563.8" y="-113.6" class="st18" width="22" height="523.2"/>
					<linearGradient id="SVGID_15_" gradientUnits="userSpaceOnUse" x1="643.1808" y1="343.8824" x2="643.1808" y2="-113.6578">
						<stop  offset="0" style="stop-color:#426120"/>
						<stop  offset="1" style="stop-color:#1F4A6E"/>
					</linearGradient>
					<rect x="608.6" y="-122.5" class="st19" width="69.3" height="532.2"/>
					<linearGradient id="SVGID_16_" gradientUnits="userSpaceOnUse" x1="608.5513" y1="143.5497" x2="627.8486" y2="143.5497">
						<stop  offset="0" style="stop-color:#C7B299"/>
						<stop  offset="1" style="stop-color:#998675"/>
					</linearGradient>
					<rect x="608.6" y="-122.5" class="st20" width="19.3" height="532.2"/>
					<linearGradient id="SVGID_17_" gradientUnits="userSpaceOnUse" x1="539.9547" y1="175.112" x2="615.5206" y2="175.112">
						<stop  offset="0" style="stop-color:#C7B299"/>
						<stop  offset="1" style="stop-color:#998675"/>
					</linearGradient>
					<path class="st21" d="M608.6,221.1c0,0-5.1-31.3-25-42.7c-19.9-11.4-32.2-41.7-43.6-46.5v-2.8c0,0,13.8,8.7,24.7,26.9
						c8.6,14.4,25,15.5,33.5,23.4c8.5,7.9,17.4,25.3,17.4,25.3L608.6,221.1z"/>
					<path class="st22" d="M739.6,84.5v3.6c-12.2,15.1-25.1,35.6-37.1,41c-11.2,5.1-19.5,18.6-24.7,29.7c-3.4,7.2-5.4,13.4-6.1,15.5
						c-0.2,0.5-0.2,0.8-0.2,0.8l-0.3-0.8l-3-8.7c0,0,3.8-10.6,9.6-20.9c5.1-9.1,11.7-18.1,18.7-19.6
						C710.4,122,728.1,100.3,739.6,84.5z"/>
					<linearGradient id="SVGID_18_" gradientUnits="userSpaceOnUse" x1="592.9692" y1="190.6821" x2="598.4932" y2="190.6821">
						<stop  offset="0" style="stop-color:#C7B299"/>
						<stop  offset="1" style="stop-color:#998675"/>
					</linearGradient>
					<path class="st23" d="M593.4,7.3c0,0-0.9,355.1,0,366.7C593.4,374,604.9,67.7,593.4,7.3z"/>
					<path class="st24" d="M572.8,51.6c0,0-6.4-27.7-20.5-30.1c-8.7-1.4-20-1-22.5-2.9C527.3,16.7,518.8,0,518.8,0s10.8,18,18,18
						c7.3,0,26.9,2.4,30,10.8c3.2,8.5,10.4,13.8,10.4,13.8L572.8,51.6z"/>
					<linearGradient id="SVGID_19_" gradientUnits="userSpaceOnUse" x1="465.8298" y1="244.9569" x2="672.3254" y2="608.3885">
						<stop  offset="0" style="stop-color:#22B573"/>
						<stop  offset="1" style="stop-color:#006837"/>
					</linearGradient>
					<path class="st25" d="M573,300.7c0,0,0.3,16.9-19,27.4c-19.2,10.5-38.2,7-33.1,25.3c5.1,18.3-36.3,9.8-44.9,28.8
						c-8.5,19,13.9,27.4,13.9,27.4h118.6c0,0,21.6-23.9,0-46.4C586.9,340.7,573,300.7,573,300.7z"/>
					<linearGradient id="SVGID_20_" gradientUnits="userSpaceOnUse" x1="603.416" y1="313.4581" x2="724.2133" y2="600.4813">
						<stop  offset="0" style="stop-color:#22B573"/>
						<stop  offset="1" style="stop-color:#20603D"/>
					</linearGradient>
					<path class="st26" d="M653.7,332.3c0,0,0.2,12-11.8,19.5c-12,7.5-23.8,5-20.6,18c3.2,13-22.6,7-27.9,20.5
						c-5.3,13.5,8.6,19.5,8.6,19.5h73.8c0,0,13.5-17,0-32.9C662.3,360.7,653.7,332.3,653.7,332.3z"/>
					<linearGradient id="SVGID_21_" gradientUnits="userSpaceOnUse" x1="470.3139" y1="114.7226" x2="683.9017" y2="-242.7101">
						<stop  offset="1.036270e-02" style="stop-color:#009245"/>
						<stop  offset="1" style="stop-color:#1F4A6E"/>
					</linearGradient>
					<path class="st27" d="M585.8-120.1c-45.9,11.4-80.8,33-172.2,19.6c-7.8,4.8-12.8,14.2-0.3,32.7c0,0-27.8,15.9,2.5,36.3
						c30.2,20.4,67.6-4.1,76.3,20.8c4,11.4,17.1,18.7,32.1,20.7c0.6,0.1,1.3,0.2,1.9,0.2c13,1.4,27.1-1,37.6-7.8
						c3.4-2.2,6.4-4.8,8.9-7.9c5.1-6.4,4.8-11.9,1.9-16.7c3.8,0.6,7.5,1.2,11.2,1.7c5.2,0.6,10.2,1.1,14.9,1.3
						c2.9,0.2,5.5,0.1,7.8,0c10.5-0.8,15.9-4.7,19.3-9.7c3.7-5.4,5.1-12.2,8.2-17.4c5.5-1.5,9.3-4,10.5-8.1c2.6-0.7,5.8-1,9.6-0.8
						c33,1.8-21.3,42,21.6,53.9c3.2,0.9,7.1,1.6,11.5,2.2c52.5,6.5,35.4-10.8,50.3-22.8V-95C739.6-95,715.8-152.7,585.8-120.1z"/>
					<defs>
						<filter id="Adobe_OpacityMaskFilter_3_" filterUnits="userSpaceOnUse" x="-258.9" y="-253.7" width="588.7" height="538.1">
							<feFlood  style="flood-color:white;flood-opacity:1" result="back"/>
							<feBlend  in="SourceGraphic" in2="back" mode="normal"/>
						</filter>
					</defs>
					<mask maskUnits="userSpaceOnUse" x="-258.9" y="-253.7" width="588.7" height="538.1" id="SVGID_22_">
						<g class="st28">
							<defs>
								<filter id="Adobe_OpacityMaskFilter_4_" filterUnits="userSpaceOnUse" x="-258.9" y="-253.7" width="588.7" height="538.1">
									<feFlood  style="flood-color:white;flood-opacity:1" result="back"/>
									<feBlend  in="SourceGraphic" in2="back" mode="normal"/>
								</filter>
							</defs>
							<mask maskUnits="userSpaceOnUse" x="-258.9" y="-253.7" width="588.7" height="538.1" id="SVGID_22_">
								<g class="st29">
								</g>
							</mask>
							
								<linearGradient id="SVGID_23_" gradientUnits="userSpaceOnUse" x1="1126.8848" y1="-726.9395" x2="972.0339" y2="-1260.548" gradientTransform="matrix(0.9742 0.2258 -0.2258 0.9742 -1227.6365 562.7712)">
								<stop  offset="0" style="stop-color:#000000"/>
								<stop  offset="0.2264" style="stop-color:#3A3A3A"/>
								<stop  offset="1" style="stop-color:#FFFFFF"/>
							</linearGradient>
							<path class="st30" d="M244.4-148.8l57-35.5l-9.4-15.1L177-127.7l-62.4-100l-56.2,35l-38-61l-15.1,9.4l65.4,104.9L-234.6,51
								l9.4,15.1L-134,9.2l25.6,41.1l-137.1,85.5l9.4,15.1L-99,65.4l46.8,75l-206.7,128.9l9.4,15.1l284-177.1l75.9,121.7l136.9-85.4
								l14.3,22.9l15.1-9.4l-61-97.7l114.1-71.1L244.4-148.8z M109-203.3l53,84.9l-41.1,25.6l-53-84.9L109-203.3z M-118.9-0.2
								L80.2-124.4l25.6,41.1L-93.3,40.9L-118.9-0.2z M115.2-68.2l46.8,75L40.2,82.7l-46.8-75L115.2-68.2z M-37.2,131l-46.8-75
								l62.3-38.8l46.8,75L-37.2,131z M116.1,204.4L49.6,97.8l121.8-75.9l66.5,106.6L116.1,204.4z M130.3-77.6l99-61.7l75.9,121.8
								l-99,61.7L130.3-77.6z"/>
						</g>
					</mask>
					
						<linearGradient id="SVGID_24_" gradientUnits="userSpaceOnUse" x1="1126.8848" y1="-726.9395" x2="972.0339" y2="-1260.548" gradientTransform="matrix(0.9742 0.2258 -0.2258 0.9742 -1227.6365 562.7712)">
						<stop  offset="0" style="stop-color:#DEEEFF"/>
						<stop  offset="0.2264" style="stop-color:#B2DAFF"/>
						<stop  offset="1" style="stop-color:#4D9DBA"/>
					</linearGradient>
					<path class="st31" d="M244.4-148.8l57-35.5l-9.4-15.1L177-127.7l-62.4-100l-56.2,35l-38-61l-15.1,9.4l65.4,104.9L-234.6,51
						l9.4,15.1L-134,9.2l25.6,41.1l-137.1,85.5l9.4,15.1L-99,65.4l46.8,75l-206.7,128.9l9.4,15.1l284-177.1l75.9,121.7l136.9-85.4
						l14.3,22.9l15.1-9.4l-61-97.7l114.1-71.1L244.4-148.8z M109-203.3l53,84.9l-41.1,25.6l-53-84.9L109-203.3z M-118.9-0.2
						L80.2-124.4l25.6,41.1L-93.3,40.9L-118.9-0.2z M115.2-68.2l46.8,75L40.2,82.7l-46.8-75L115.2-68.2z M-37.2,131l-46.8-75
						l62.3-38.8l46.8,75L-37.2,131z M116.1,204.4L49.6,97.8l121.8-75.9l66.5,106.6L116.1,204.4z M130.3-77.6l99-61.7l75.9,121.8
						l-99,61.7L130.3-77.6z"/>
					<linearGradient id="SVGID_25_" gradientUnits="userSpaceOnUse" x1="57.2965" y1="-184.1837" x2="139.6255" y2="-184.1837">
						<stop  offset="0" style="stop-color:#F7931E"/>
						<stop  offset="0.7333" style="stop-color:#FBAE17"/>
					</linearGradient>
					<path class="st32" d="M139.6-205c0-22.7-18.4-41.2-41.2-41.2S57.3-227.7,57.3-205c0,0.8,0,1.6,0.1,2.3h-0.1
						c0,31.3,41.2,80.5,41.2,80.5s41.2-49.1,41.2-80.5h-0.1C139.6-203.4,139.6-204.2,139.6-205z M98.5-178.3
						c-14.7,0-26.7-11.9-26.7-26.7c0-14.7,11.9-26.7,26.7-26.7s26.7,11.9,26.7,26.7C125.1-190.3,113.2-178.3,98.5-178.3z"/>
				</g>
			</g>
		</g>
		<g class="st1">
			<g>
				<g>
					<g>
						<g>
							<g>
								<g>
									<g>
										<polygon class="st33" points="282.2,456.9 293,443.2 294.2,443.5 283.1,457.6 										"/>
									</g>
								</g>
							</g>
						</g>
					</g>
				</g>
			</g>
			<g>
				<g>
					<g>
						<g>
							<g>
								<g>
									<g>
										<rect x="283.6" y="441.3" class="st34" width="20.3" height="2.3"/>
									</g>
								</g>
							</g>
						</g>
					</g>
				</g>
			</g>
			<g>
				<path class="st35" d="M381.7,498.9c-31.1,0-56.4-25.3-56.4-56.4c0-31.1,25.3-56.4,56.4-56.4c31.1,0,56.4,25.3,56.4,56.4
					C438.1,473.6,412.8,498.9,381.7,498.9z M381.7,401.7c-22.5,0-40.8,18.3-40.8,40.8c0,22.5,18.3,40.8,40.8,40.8
					c22.5,0,40.8-18.3,40.8-40.8C422.5,420,404.2,401.7,381.7,401.7z"/>
			</g>
			<g>
				<path class="st36" d="M381.7,503.9c-33.9,0-61.5-27.6-61.5-61.5c0-33.9,27.6-61.5,61.5-61.5c33.9,0,61.5,27.6,61.5,61.5
					C443.2,476.3,415.6,503.9,381.7,503.9z M381.7,393.2c-27.2,0-49.3,22.1-49.3,49.3c0,27.2,22.1,49.3,49.3,49.3
					c27.2,0,49.3-22.1,49.3-49.3C431,415.3,408.9,393.2,381.7,393.2z"/>
			</g>
			<g>
				<path class="st35" d="M202.6,498.9c-31.1,0-56.4-25.3-56.4-56.4c0-31.1,25.3-56.4,56.4-56.4c31.1,0,56.4,25.3,56.4,56.4
					C259,473.6,233.7,498.9,202.6,498.9z M202.6,401.7c-22.5,0-40.8,18.3-40.8,40.8c0,22.5,18.3,40.8,40.8,40.8
					c22.5,0,40.8-18.3,40.8-40.8C243.3,420,225,401.7,202.6,401.7z"/>
			</g>
			<g>
				<path class="st36" d="M202.6,503.9c-33.9,0-61.5-27.6-61.5-61.5c0-33.9,27.6-61.5,61.5-61.5c33.9,0,61.5,27.6,61.5,61.5
					C264,476.3,236.5,503.9,202.6,503.9z M202.6,393.2c-27.2,0-49.3,22.1-49.3,49.3c0,27.2,22.1,49.3,49.3,49.3
					c27.2,0,49.3-22.1,49.3-49.3C251.8,415.3,229.7,393.2,202.6,393.2z"/>
			</g>
			<path class="st37" d="M283.9,232.2l-14,44.7L259,311.6c0,0-23.9,1.9-20-15.2c1.9-8.1,4.7-16.2,7.9-23.8
				c8.2-19.5,19.1-35.7,23.5-39.4C276.6,228,283.9,232.2,283.9,232.2z"/>
			<path class="st38" d="M269.9,276.8L259,311.6c0,0-24.8,1.8-20.9-15.2c1.9-8.1,5.4-16.2,8.8-23.8L269.9,276.8z"/>
			<g>
				<g>
					<g>
						<g>
							<g>
								<g>
									<g>
										<g>
											<path class="st39" d="M351.5,325.2c0,0,4.7,0.3,5.4,0.4c0.7,0.1,2.2,1.3,3.7,2.8c1.5,1.5,2.8,4.3,2.7,4.6
												c-0.1,0.4,0,0.8-0.8,1.4c-0.8,0.7-1.8,0.8-1.8,0.8s-0.6,1.2-1.9,1.3c0,0-0.6,1.1-2.1,1c0,0-0.6,1.1-1.7,0.9
												c0,0-1.4-1.2-2.1-1.5c-0.7-0.3-3.5-3-5.7-6C347,331.1,346,327.5,351.5,325.2z"/>
										</g>
									</g>
								</g>
							</g>
						</g>
					</g>
				</g>
			</g>
			<g>
				<g>
					<g>
						<g>
							<g>
								<g>
									<g>
										<path class="st40" d="M374.1,358.2l-1.9-2.4c0.1-0.1,9.6-7.9,10.1-16.3c0.2-3.2-0.9-5.9-3.3-8.5c-2.6-2.7-5.6-4.1-8.9-4.2
											c-7.7-0.1-15,7.2-15,7.3l-0.1,0.1l-9.1,8.2l-2-2.2l9-8.2c0.6-0.6,8.3-8.1,17-8.1c0.1,0,0.1,0,0.2,0
											c4.2,0,7.9,1.8,11.1,5.1c3,3.2,4.3,6.8,4.1,10.8C384.6,349.5,374.5,357.8,374.1,358.2z M373.1,357l-1-1.2h0L373.1,357z"/>
									</g>
								</g>
							</g>
						</g>
					</g>
				</g>
			</g>
			<g>
				<g>
					<g>
						<g>
							<g>
								<g>
									<g>
										<path class="st41" d="M289,321.4c0,0,22.8,16,27.8,20.6s16.8,15.2,17,17c0.2,1.8,1.6,4.7-3.7,13
											c-5.2,8.4-14.8,24-16.2,26.8c-3,5.9-15.6,27.7-15.6,27.7l-6.8-1.3c0,0,7.9-29.1,15.4-47.6c2-4.9,7-11.7,5.5-13.8
											c-1.5-2.1-19.3-6.6-53.2-25.3c-3.4-1.9-6,2.1-5.5-2.8c0.5-4.9,0.2-22.5,10.3-26.2C274,305.7,289,321.4,289,321.4z"/>
									</g>
								</g>
							</g>
						</g>
					</g>
				</g>
			</g>
			<g>
				<g>
					<g>
						<g>
							<g>
								<path class="st41" d="M291.7,424.4c0,0-1.7,4.8-1.6,6.3c0.1,1.4,7.2-1.3,7.2-1.3s0.5-1.8,1.1-3
									C298.4,426.3,295.8,423,291.7,424.4z"/>
							</g>
						</g>
					</g>
				</g>
			</g>
			<g>
				<g>
					<g>
						<g>
							<g>
								<g>
									<path class="st42" d="M297.7,428.3c0,0,4.7,4,7.5,4.2c2.8,0.1,11.3,1.9,11.7,3.4c0.4,1.5,3.4,5.2-12.6,5.5
										c-15.9,0.3-17.2-0.1-16.9-3c0.4-2.9,1.5-6.9,2.1-9.7L297.7,428.3z"/>
								</g>
							</g>
						</g>
					</g>
				</g>
			</g>
			<g>
				<g>
					<g>
						<g>
							<g>
								<g>
									<g>
										<g>
											<path class="st39" d="M361.9,333.4c0,0-3.7-3.6-4.5-3c-0.7,0.5-0.7,1.1-0.7,1.1l-2.3-0.8c0,0-1.9,0.3-1.1,2.1
												c0,0-1.8,0.1-0.8,1.8c0,0-1.2,0.6-0.9,1.4c0.3,0.8,2.8,3,2.8,3s0.8,0.2,1.6-0.9c0,0,1.3,0.1,2-1c0,0,1.1,0,1.8-1.3
												c0,0,2.4-0.3,2.5-2.1C362.3,333.8,362.1,333.5,361.9,333.4z"/>
										</g>
									</g>
								</g>
							</g>
						</g>
					</g>
				</g>
			</g>
			<g>
				<g>
					<g>
						<g>
							<g>
								<g>
									<path class="st43" d="M357.5,336.8c0,0-2.5-1.9-3.8-3.4l0.2-0.1c1.2,1.5,3.7,3.4,3.7,3.4L357.5,336.8z"/>
								</g>
							</g>
						</g>
					</g>
				</g>
			</g>
			<g>
				<g>
					<g>
						<g>
							<g>
								<g>
									<path class="st43" d="M355.6,337.9c-0.1-0.1-2-1.5-2.7-2.6l0.2-0.1c0.7,1,2.7,2.5,2.7,2.5L355.6,337.9z"/>
								</g>
							</g>
						</g>
					</g>
				</g>
			</g>
			<g>
				<g>
					<g>
						<g>
							<g>
								<g>
									<g>
										
											<rect x="266.5" y="349.9" transform="matrix(0.965 -0.2622 0.2622 0.965 -96.7756 84.4362)" class="st35" width="3" height="110"/>
									</g>
								</g>
							</g>
						</g>
					</g>
				</g>
			</g>
			<g>
				<g>
					<g>
						<g>
							<g>
								<g>
									<g>
										<path class="st35" d="M233.2,341.9c0,0-0.7,9.7,8.4,10.7c9,1.1,25.2,0,25.2,0S243.7,336.6,233.2,341.9z"/>
									</g>
								</g>
							</g>
						</g>
					</g>
				</g>
			</g>
			<g>
				<g>
					<g>
						<g>
							<g>
								<g>
									<path class="st39" d="M315.9,258.8c0,0,9.9,28.9,11.5,32.1c1.7,3.2,24,34.4,24,34.4l-4.5,5.9c0,0-27.3-32.8-28.3-34.5
										c-1-1.8-14-33.7-14-33.7L315.9,258.8z"/>
								</g>
							</g>
						</g>
					</g>
				</g>
			</g>
			<g>
				<g>
					<g>
						<g>
							<g>
								<g>
									<path class="st41" d="M298.3,187c0,0,16.7,6.8,12.9,29c-3.9,22.2-19.2,23.1-26.8,4.8C276.7,202.4,279.2,183.1,298.3,187z"
										/>
								</g>
							</g>
						</g>
					</g>
				</g>
			</g>
			<g>
				<g>
					<g>
						<g>
							<g>
								<g>
									<path class="st44" d="M299.4,239c0,0,11.3,6.9,13.4,10c4.5,6.7,3.6,14.4,3.6,16.5c-0.2,6.8-5,13.1-6.8,15.9
										c-1.1,1.7-3.8,11.3-7.5,15.4c-3.8,4.2-12.5,19.9-12.5,19.9s-21.3,7-30.3-14c0,0,7.3-15.2,8.6-22.7
										c3.9-22.7,5.7-26.2,7.3-29.4c3-5.8,9-10.8,10.3-12C286.8,237.4,299.4,239,299.4,239z"/>
								</g>
							</g>
						</g>
					</g>
				</g>
			</g>
			<g>
				<g>
					<g>
						<g>
							<g>
								<g>
									<path class="st41" d="M278.6,247.2c2.6-2.3,12-2.9,14.9,9.4c2.9,12.4,12.2,37.3,13.8,39.5c1.6,2.3,34.3,34.8,34.3,34.8
										l-4.8,4.7c0,0-36.2-24.8-38.1-28.2c-1.9-3.5-21.7-39.6-21.8-42C276.9,263.1,272,253,278.6,247.2z"/>
								</g>
							</g>
						</g>
					</g>
				</g>
			</g>
			<g>
				<g>
					<g>
						<g>
							<g>
								<g>
									<path class="st44" d="M299.4,239c0,0,16.1,5.9,18.8,21.7l-6.4,2.5C311.7,263.3,288.7,239.9,299.4,239z"/>
								</g>
							</g>
						</g>
					</g>
				</g>
			</g>
			<g>
				<g>
					<g>
						<g>
							<g>
								<g>
									<path class="st41" d="M296.9,232.8c0,0-0.2,4.4,0.5,5.6l1.9,0.6c0,0,5.3,10.3-0.6,11.4c-6,1.1-11.9-4.6-13.3-11.9
										c0,0,1.4-9.6,0.5-13.4C285.1,221.3,296.9,232.8,296.9,232.8z"/>
								</g>
							</g>
						</g>
					</g>
				</g>
			</g>
			<g>
				<g>
					<g>
						<g>
							<g>
								<g>
									<g>
										<path class="st35" d="M376.8,361.8l-1.9-2.4c0.1-0.1,9.6-7.9,10.1-16.3c0.2-3.2-0.9-5.9-3.3-8.5c-2.6-2.7-5.6-4.1-8.9-4.2
											c-7.7-0.1-15,7.2-15,7.3l-0.1,0.1l-9.1,8.2l-2-2.2l9-8.2c0.6-0.6,8.3-8.1,17-8.1c0.1,0,0.1,0,0.2,0
											c4.2,0,7.9,1.8,11.1,5.1c3,3.2,4.3,6.8,4.1,10.8C387.3,353.1,377.2,361.5,376.8,361.8z M375.8,360.6l-1-1.2l0,0
											L375.8,360.6z"/>
									</g>
								</g>
							</g>
						</g>
					</g>
				</g>
			</g>
			<g>
				<g>
					<g>
						<g>
							<g>
								<g>
									<g>
										
											<rect x="272.5" y="463.7" transform="matrix(0.6227 -0.7824 0.7824 0.6227 -257.7414 393.9104)" class="st45" width="14.1" height="1.1"/>
									</g>
								</g>
							</g>
						</g>
					</g>
				</g>
			</g>
			<g>
				<g>
					<g>
						<g>
							<g>
								<g>
									<g>
										<polygon class="st35" points="380.2,443.2 351.9,340.1 354.8,339.3 383.1,442.4 										"/>
									</g>
								</g>
							</g>
						</g>
					</g>
				</g>
			</g>
			<g>
				<g>
					<g>
						<g>
							<g>
								<g>
									<g>
										<rect x="347.3" y="341" class="st35" width="5.5" height="2.8"/>
									</g>
								</g>
							</g>
						</g>
					</g>
				</g>
			</g>
			<g>
				<g>
					<g>
						<g>
							<g>
								<g>
									<g>
										<path class="st35" d="M385.7,442.8c0,2.2-1.8,4-4,4c-2.2,0-4-1.8-4-4c0-2.2,1.8-4,4-4
											C383.9,438.8,385.7,440.6,385.7,442.8z"/>
									</g>
								</g>
							</g>
						</g>
					</g>
				</g>
			</g>
			<g>
				<g>
					<g>
						<g>
							<g>
								<g>
									<polygon class="st35" points="283,459.6 200.1,443.1 255.8,358.8 358.6,358.8 358.6,361.9 257.4,361.9 205.1,441 
										281.9,456.3 359.9,368 361.7,370.6 									"/>
								</g>
							</g>
						</g>
					</g>
				</g>
			</g>
			<g>
				<g>
					<g>
						<g>
							<g>
								<g>
									<g>
										<path class="st46" d="M283.2,474.6c-1,0-2-0.1-3.1-0.3c-9.1-1.7-15.1-10.5-13.4-19.5c1.7-9.1,10.5-15.1,19.5-13.4
											c4.4,0.8,8.2,3.3,10.8,7c2.5,3.7,3.5,8.1,2.7,12.6l0,0C298.1,468.9,291.1,474.6,283.2,474.6z M283.1,444.8
											c-6.1,0-11.6,4.4-12.7,10.6c-1.3,7,3.4,13.8,10.4,15.1c7,1.3,13.8-3.4,15.1-10.4c0.6-3.4-0.1-6.9-2.1-9.7
											c-2-2.9-4.9-4.8-8.3-5.4C284.7,444.9,283.9,444.8,283.1,444.8z"/>
									</g>
								</g>
							</g>
						</g>
					</g>
				</g>
			</g>
			<g>
				<g>
					<g>
						<g>
							<g>
								<g>
									<g>
										<path class="st35" d="M285.8,458.3c-0.3,1.4-1.7,2.4-3.1,2.1c-1.4-0.3-2.4-1.7-2.1-3.1c0.3-1.4,1.7-2.4,3.1-2.1
											C285.1,455.5,286,456.9,285.8,458.3z"/>
									</g>
								</g>
							</g>
						</g>
					</g>
				</g>
			</g>
			<g>
				<g>
					<g>
						<g>
							<g>
								<g>
									<g>
										<g>
											<path class="st47" d="M341.7,331c0,0,2.5,1.1,3.7,1s8.3-0.8,9.2,0.5c0.9,1.2,7.8,8.1,6.8,9.2c-0.9,1-1.6,0.5-2.1,0
												c-0.5-0.5-5.7-5-6.4-5c0,0,4.7,5.3,3.9,6.8c-0.8,1.6-2.3,1.3-3.1,1.6c-0.9,0.3-2.3,1.4-3.9,0.7c-1.6-0.7-7.7-6.3-9.1-7.3
												c-1.5-0.9-5.2-3.4-5.2-3.8C335.5,334.4,341.7,331,341.7,331z"/>
										</g>
									</g>
								</g>
							</g>
						</g>
					</g>
				</g>
			</g>
			<g>
				<g>
					<g>
						<g>
							<g>
								<g>
									<g>
										<path class="st41" d="M280.9,344.5c0,0,0.7,26.1,0.8,30.1c0.1,4.3,0.2,19.7-0.2,21.6c-0.4,1.9-3.1,58.1-3.1,58.1l-8.3-1.4
											c0,0-5.1-46.2-4.9-52.2c0.4-11.5-17.4-64.1-17.5-68.6C247.7,327.5,280.9,344.5,280.9,344.5z"/>
									</g>
								</g>
							</g>
						</g>
					</g>
				</g>
			</g>
			<g>
				<g>
					<g>
						<g>
							<g>
								<g>
									<polygon class="st41" points="278.5,454.2 278.5,457.9 270.9,457.6 270.2,452.8 									"/>
								</g>
							</g>
						</g>
					</g>
				</g>
			</g>
			<g>
				<g>
					<g>
						<g>
							<g>
								<g>
									<path class="st42" d="M278.5,455.8c0,0,4.7,4,7.5,4.2c2.8,0.1,11.3,1.9,11.7,3.4c0.4,1.5,3.1,6.5-12.8,5.9
										c-15.9-0.6-17.1-0.5-16.8-3.4c0.4-2.9,1.5-6.9,2.1-9.7L278.5,455.8z"/>
								</g>
							</g>
						</g>
					</g>
				</g>
			</g>
			<g>
				<g>
					<g>
						<g>
							<g>
								<g>
									<path class="st48" d="M290.1,315.8c0,0,5.9,8.8,22.5,21.9c0,0-48,28.5-55.4,28.9c-1.1,0.1-5.1-10.7-8.1-16.9
										c0,0-12.8-19,2-37.1c5-6.1,8.1-10,8.1-10L290.1,315.8z"/>
								</g>
							</g>
						</g>
					</g>
				</g>
			</g>
			<g>
				<g>
					<g>
						<g>
							<g>
								<g>
									<g>
										
											<rect x="266" y="468.9" transform="matrix(0.999 4.388579e-02 -4.388579e-02 0.999 20.8957 -11.6633)" class="st34" width="20.3" height="2.3"/>
									</g>
								</g>
							</g>
						</g>
					</g>
				</g>
			</g>
			<g>
				<g>
					<g>
						<g>
							<g>
								<g>
									<g>
										<circle class="st35" cx="202.6" cy="442.8" r="4"/>
									</g>
								</g>
							</g>
						</g>
					</g>
				</g>
			</g>
			<g>
				<path class="st37" d="M267.2,266.1c-3.3,0-4.6-1.4-5.1-2.7c-2.4-5.8,10.4-19.4,14.4-23.4l0.7-0.7l1,0.3
					c0.7,0.2,16.4,4.5,17.1,14.4c0.2,2.4-0.6,4.5-2.2,6.2C289.4,264.3,281.1,266.1,267.2,266.1z M278.2,243.3
					c-7.2,7.3-13.9,16.5-12.9,18.8c0.1,0.3,0.9,0.5,1.9,0.5c12.6,0,20.4-1.6,23.4-4.8c0.9-1,1.3-2.2,1.2-3.6
					C291.4,248.6,282.6,244.7,278.2,243.3z"/>
			</g>
			<g>
				<g>
					<g>
						<g>
							<g>
								<g>
									<path class="st49" d="M293.6,196.4c0,0,16.6,8.9,18.2,13.7c0,0,4.7-8.8-3.9-21.9c-8.7-13.1-26.5-11.6-35.6-1.9
										c-9.1,9.7-9.7,27.4-22.6,28.9c-12.9,1.5-21.7-3.6-23.4,11.7c-1.7,15.3-19.8,4.2-22.1,16.3c-2.3,12,14.2,26.6,34.2,10.5
										c20-16.1,24.9-4.2,33.1-5c8.2-0.8,18.2-2,14.6-23.2C282.6,204.4,293.6,196.4,293.6,196.4z"/>
								</g>
							</g>
						</g>
					</g>
				</g>
			</g>
			<g>
				<g>
					<g>
						<g>
							<g>
								<g>
									<path class="st44" d="M277.9,272.3c0,0,17.5-8.2,19.4-8.2c0,0-3.6-23.2-18.1-17.6C279.3,246.5,268.6,252.1,277.9,272.3z"/>
								</g>
							</g>
						</g>
					</g>
				</g>
			</g>
		</g>
		<defs>
			<filter id="Adobe_OpacityMaskFilter_5_" filterUnits="userSpaceOnUse" x="-178.9" y="56" width="722.9" height="617.7">
				<feFlood  style="flood-color:white;flood-opacity:1" result="back"/>
				<feBlend  in="SourceGraphic" in2="back" mode="normal"/>
			</filter>
		</defs>
		<mask maskUnits="userSpaceOnUse" x="-178.9" y="56" width="722.9" height="617.7" id="SVGID_26_">
			<g class="st50">
			</g>
		</mask>
		<g class="st51">
			<defs>
				<filter id="Adobe_OpacityMaskFilter_6_" filterUnits="userSpaceOnUse" x="-178.9" y="56" width="722.9" height="617.7">
					<feFlood  style="flood-color:white;flood-opacity:1" result="back"/>
					<feBlend  in="SourceGraphic" in2="back" mode="normal"/>
				</filter>
			</defs>
			<mask maskUnits="userSpaceOnUse" x="-178.9" y="56" width="722.9" height="617.7" id="SVGID_26_">
				<g class="st52">
					<g>
						<path d="M-980.3,564.5c0,0,313.9-28.7,577.6,36c107.1,26.3,202.7,47.1,354,17C147.7,578.4,222.1,627.7,285,682
							c18.6,16,39.9,28.6,63,36.8c59.4,21.2,183.7,46.2,390.8,13.2v138.2H-980.4C-980.4,870.3-981.1,563.7-980.3,564.5z"/>
					</g>
				</g>
			</mask>
			<g>
				<path class="st53" d="M337.7,496c0,0,185.7-187.3-1-397.5c0,0,0,0,0,0c31.5,5.4,62.2,18.3,89.3,39.2
					c88.2,68.1,104.4,194.8,36.3,282.9C430.3,462,385.4,487.5,337.7,496z"/>
				<linearGradient id="SVGID_27_" gradientUnits="userSpaceOnUse" x1="-178.9283" y1="555.933" x2="127.416" y2="555.933">
					<stop  offset="0" style="stop-color:#4BABF9"/>
					<stop  offset="1" style="stop-color:#6487D4"/>
				</linearGradient>
				<polygon class="st54" points="127.4,487 -81.1,673.7 -178.9,673.7 82.5,438.2 87.9,444.1 122,481.1 				"/>
				
					<rect x="102.2" y="430.4" transform="matrix(-0.7355 0.6775 -0.6775 -0.7355 504.073 714.255)" class="st55" width="20.8" height="50.3"/>
				
					<ellipse transform="matrix(0.7071 -0.7071 0.7071 0.7071 -121.6042 301.0519)" class="st56" cx="302.6" cy="297.3" rx="202.7" ry="202.7"/>
				<path class="st57" d="M302.6,56C169.3,56,61.3,164,61.3,297.3c0,133.3,108.1,241.3,241.3,241.3c133.3,0,241.3-108.1,241.3-241.3
					C543.9,164,435.9,56,302.6,56z M302.6,498.3c-111,0-201-90-201-201c0-111,90-201,201-201c111,0,201,90,201,201
					C503.6,408.3,413.6,498.3,302.6,498.3z"/>
			</g>
		</g>
	</g>
	<g>
	</g>
	<g>
	</g>
	<g>
	</g>
	<g>
	</g>
	<g>
	</g>
	<g>
	</g>
	<g>
	</g>
	<g>
	</g>
	<g>
	</g>
	<g>
	</g>
	<g>
	</g>
</g>
</svg>
