<?xml version="1.0" encoding="utf-8"?>
<!-- Generator: Adobe Illustrator 22.0.0, SVG Export Plug-In . SVG Version: 6.00 Build 0)  -->
<svg version="1.1" xmlns="http://www.w3.org/2000/svg" xmlns:xlink="http://www.w3.org/1999/xlink" x="0px" y="0px"
	 viewBox="0 0 600 600" style="enable-background:new 0 0 600 600;" xml:space="preserve">
<style type="text/css">
	.st0{filter:url(#Adobe_OpacityMaskFilter);}
	.st1{filter:url(#Adobe_OpacityMaskFilter_1_);}
	.st2{clip-path:url(#SVGID_2_);mask:url(#SVGID_3_);fill:url(#SVGID_4_);}
	.st3{clip-path:url(#SVGID_2_);fill:url(#SVGID_5_);}
	.st4{clip-path:url(#SVGID_2_);fill:url(#SVGID_6_);}
	.st5{clip-path:url(#SVGID_2_);fill:url(#SVGID_7_);}
	.st6{clip-path:url(#SVGID_2_);fill:url(#SVGID_8_);}
	.st7{clip-path:url(#SVGID_2_);fill:url(#SVGID_9_);}
	.st8{clip-path:url(#SVGID_2_);fill:#42B262;}
	.st9{clip-path:url(#SVGID_2_);fill:#5C8232;}
	.st10{clip-path:url(#SVGID_2_);fill:url(#SVGID_10_);}
	.st11{clip-path:url(#SVGID_2_);fill:url(#SVGID_11_);}
	.st12{clip-path:url(#SVGID_2_);fill:#385A36;}
	.st13{clip-path:url(#SVGID_2_);fill:#325743;}
	.st14{clip-path:url(#SVGID_2_);fill:url(#SVGID_12_);}
	.st15{clip-path:url(#SVGID_2_);fill:url(#SVGID_13_);}
	.st16{clip-path:url(#SVGID_2_);fill:url(#SVGID_14_);}
	.st17{clip-path:url(#SVGID_2_);fill:url(#SVGID_15_);}
	.st18{clip-path:url(#SVGID_2_);fill:#705A3F;}
	.st19{clip-path:url(#SVGID_2_);}
	.st20{fill:#705A3F;}
	.st21{clip-path:url(#SVGID_2_);fill:url(#SVGID_16_);}
	.st22{fill:#EEA886;}
	.st23{fill:#A15427;}
	.st24{fill:#1C2F54;}
	.st25{fill:#E67939;}
	.st26{fill:#FFF8F1;}
	.st27{fill:#406ABD;}
	.st28{fill:#E8586E;}
	.st29{fill:#AD4253;}
	.st30{fill:#F55D74;}
	.st31{fill:#FF6179;}
	.st32{fill:#C24A5C;}
	.st33{fill:#51578C;}
	.st34{fill:#D5CAE3;}
	.st35{fill:#E3A080;}
	.st36{fill:#454442;}
	.st37{fill:#C48A6F;}
	.st38{clip-path:url(#SVGID_2_);fill:url(#SVGID_17_);}
	.st39{clip-path:url(#SVGID_2_);fill:url(#SVGID_18_);}
	.st40{clip-path:url(#SVGID_2_);fill:url(#SVGID_19_);}
</style>
<g id="Layer_1">
</g>
<g id="Layer_2">
	<g>
		<defs>
			<rect id="SVGID_1_" width="600" height="600"/>
		</defs>
		<clipPath id="SVGID_2_">
			<use xlink:href="#SVGID_1_"  style="overflow:visible;"/>
		</clipPath>
		<defs>
			<filter id="Adobe_OpacityMaskFilter" filterUnits="userSpaceOnUse" x="-343.5" y="199" width="943" height="296.5">
				<feFlood  style="flood-color:white;flood-opacity:1" result="back"/>
				<feBlend  in="SourceGraphic" in2="back" mode="normal"/>
			</filter>
		</defs>
		<mask maskUnits="userSpaceOnUse" x="-343.5" y="199" width="943" height="296.5" id="SVGID_3_">
			<g class="st0">
				<defs>
					<filter id="Adobe_OpacityMaskFilter_1_" filterUnits="userSpaceOnUse" x="-414.6" y="199" width="1014.1" height="296.5">
						<feFlood  style="flood-color:white;flood-opacity:1" result="back"/>
						<feBlend  in="SourceGraphic" in2="back" mode="normal"/>
					</filter>
				</defs>
				<mask maskUnits="userSpaceOnUse" x="-414.6" y="199" width="1014.1" height="296.5" id="SVGID_3_">
					<g class="st1">
					</g>
				</mask>
				<linearGradient id="SVGID_4_" gradientUnits="userSpaceOnUse" x1="92.4592" y1="193.4631" x2="92.4592" y2="383.272">
					<stop  offset="0" style="stop-color:#FFFFFF"/>
					<stop  offset="1" style="stop-color:#000000"/>
				</linearGradient>
				<path class="st2" d="M599.5,266v229.4h-943c-1.6-1.5-3.2-3.1-4.7-4.7c-6.7-6.8-13-13.9-18.9-21.1c-3-3.7-5.9-7.5-8.7-11.3
					c-0.3-0.4-0.6-0.9-0.9-1.3c-9.2-12.8-16.9-26-22.9-39.4c-5.7-12.7-9.9-25.6-12.3-38.5c-5.8-30.1-2.6-60.4,12-88.9v27h52.9V253
					h41.7v27h21.7l18.8-18.8h21.4V199h59.7v92.4h61v22.3h23.7V280h90.2v37.2h34.5V266h52.6v76.4h3.1V239.5h46.4V266H167v51.2h52.9
					V253h41.7v27h21.7l18.8-18.8h21.3V199h59.7v92.4h61.1v22.3h23.7V280h47.5v37.2h77.2V266H599.5z"/>
			</g>
		</mask>
		<linearGradient id="SVGID_5_" gradientUnits="userSpaceOnUse" x1="128.025" y1="193.4631" x2="128.025" y2="383.272">
			<stop  offset="0" style="stop-color:#B1D9F9"/>
			<stop  offset="1" style="stop-color:#FFFFFF"/>
		</linearGradient>
		<path class="st3" d="M-8.9,317.2h34.5V266h52.6v76.4h3.1V239.5h46.4V266H167v51.2h52.9V253h41.7v27h21.7l18.8-18.8h21.3V199h59.7
			v92.4h61.1v22.3h23.7V280h47.5v37.2h77.2V266h7v229.4h-943"/>
		<linearGradient id="SVGID_6_" gradientUnits="userSpaceOnUse" x1="-28.6273" y1="174.8846" x2="153.2382" y2="174.8846">
			<stop  offset="0" style="stop-color:#B1E1E6"/>
			<stop  offset="1" style="stop-color:#F2F5FF"/>
		</linearGradient>
		<path class="st4" d="M153.2,195.8c0-13.7-13.9-24.9-31.1-24.9c-3.9,0-7.6,0.6-11.1,1.6c-4.5-11-15.8-18.8-28.9-18.8
			c-14.6,0-26.9,9.6-30.2,22.5c-2.5-1-5.3-1.5-8.2-1.5c-4,0-7.7,1-10.9,2.8c-3.6-6.6-10.9-11.1-19.3-11.1
			c-10.2,0-18.8,6.7-21.1,15.8c-1.8-0.7-3.7-1-5.7-1c-8.5,0-15.4,6.6-15.4,14.7L153.2,195.8z"/>
		<linearGradient id="SVGID_7_" gradientUnits="userSpaceOnUse" x1="99.9884" y1="546.9802" x2="99.9884" y2="380.9423">
			<stop  offset="0" style="stop-color:#EAD7BB"/>
			<stop  offset="1" style="stop-color:#0B7A53"/>
		</linearGradient>
		<path class="st5" d="M-399.5,417.7h999.1V546c0,0-2.6,63.2-219.8,30.3C141,540.2-6.8,642.5-185.8,587.3"/>
		<linearGradient id="SVGID_8_" gradientUnits="userSpaceOnUse" x1="-348.1767" y1="563.8502" x2="609.5197" y2="563.8502">
			<stop  offset="0" style="stop-color:#22B573"/>
			<stop  offset="1" style="stop-color:#20603D"/>
		</linearGradient>
		<path class="st6" d="M-348.2,490.8h947.7l10,105.2c0,0-2.8,66-219.8,30.3c-238.2-39.2-396.5,16.2-575.4-39.1"/>
		<linearGradient id="SVGID_9_" gradientUnits="userSpaceOnUse" x1="133.7576" y1="527.1735" x2="133.7576" y2="486.9159">
			<stop  offset="0" style="stop-color:#EAD7BB"/>
			<stop  offset="1" style="stop-color:#FBB03B"/>
		</linearGradient>
		<path class="st7" d="M-332,506.2h931.5v33.6h-887.2"/>
		<path class="st8" d="M-375.7,458.4h975.2v11.3H-367"/>
		<path class="st9" d="M108,417.7c0,0-3.7-18.4,13.3-15.4c0,0,5.4-21.3,24.7-13.3c19.3,7.9,11.9,18.9,11.9,18.9s15-8.3,26.4,0
			c0,0,10.2-20.5,24.4-8.9c0,0,18.7-10,21.6,6.3c0,0,14.8-7.8,17.6,6c0,0,5.1,2.5,5.1,6.5H108z"/>
		<path class="st9" d="M78.4,417.7c0,0-2.3-11.4,8.3-9.6c0,0,3.4-13.3,15.4-8.3c12,4.9,7.4,11.8,7.4,11.8s9.4-5.2,16.4,0
			c0,0,6.4-12.8,15.2-5.5c0,0,11.7-6.2,13.4,3.9c0,0,9.2-4.9,11,3.7c0,0,3.2,1.5,3.2,4.1H78.4z"/>
		<path class="st9" d="M187,417.7c0,0-4.6-22.9,16.6-19.2c0,0,6.7-26.5,30.7-16.6c24,9.9,14.8,23.5,14.8,23.5s18.7-10.4,32.9,0
			c0,0,12.7-25.5,30.4-11.1c0,0,23.3-12.5,26.9,7.9c0,0,18.4-9.8,21.9,7.4c0,0,6.4,3.1,6.4,8.1H187z"/>
		<path class="st9" d="M287.4,417.7c0,0-3.7-18.4,13.3-15.4c0,0,5.4-21.3,24.7-13.3c19.3,7.9,11.9,18.9,11.9,18.9s15-8.3,26.4,0
			c0,0,10.2-20.5,24.4-8.9c0,0,18.7-10,21.6,6.3c0,0,14.8-7.8,17.6,6c0,0,5.1,2.5,5.1,6.5H287.4z"/>
		<path class="st9" d="M330,417.7c0,0-3.7-18.4,13.3-15.4c0,0,5.4-21.3,24.7-13.3c19.3,7.9,11.9,18.9,11.9,18.9s15-8.3,26.4,0
			c0,0,10.2-20.5,24.4-8.9c0,0,18.7-10,21.6,6.3c0,0,14.8-7.8,17.6,6c0,0,5.1,2.5,5.1,6.5H330z"/>
		<path class="st9" d="M445.5,417.7c0,0-1.8-9.2,6.7-7.7c0,0,2.7-10.6,12.3-6.7c9.6,4,6,9.4,6,9.4s7.5-4.2,13.2,0
			c0,0,5.1-10.2,12.2-4.5c0,0,9.4-5,10.8,3.2c0,0,7.4-3.9,8.8,3c0,0,2.6,1.2,2.6,3.3H445.5z"/>
		<linearGradient id="SVGID_10_" gradientUnits="userSpaceOnUse" x1="418.057" y1="523.567" x2="418.057" y2="72.0248">
			<stop  offset="0" style="stop-color:#426120"/>
			<stop  offset="1" style="stop-color:#1F4A6E"/>
		</linearGradient>
		<rect x="405.9" y="99.4" class="st10" width="24.3" height="477"/>
		<linearGradient id="SVGID_11_" gradientUnits="userSpaceOnUse" x1="493.3557" y1="513.731" x2="493.3557" y2="78.105">
			<stop  offset="0" style="stop-color:#426120"/>
			<stop  offset="1" style="stop-color:#1F4A6E"/>
		</linearGradient>
		<rect x="455.2" y="69.7" class="st11" width="76.3" height="506.7"/>
		<rect x="455.2" y="79.6" class="st8" width="21.2" height="496.7"/>
		<path class="st8" d="M455.2,368.7c0,0-5.6-34.5-27.5-47c-21.9-12.5-35.5-46-48-51.2v-3.1c0,0,15.2,9.5,27.2,29.6
			c9.4,15.8,27.5,17.1,36.9,25.8c9.4,8.7,19.1,27.9,19.1,27.9L455.2,368.7z"/>
		<path class="st12" d="M599.5,218.3v3.9c-13.4,16.6-27.6,39.2-40.9,45.2c-12.3,5.6-21.5,20.5-27.2,32.7c-3.7,7.9-5.9,14.7-6.7,17.1
			c-0.2,0.6-0.3,0.9-0.3,0.9l-0.3-0.9l-3.3-9.6c0,0,4.1-11.6,10.5-23.1c5.6-10,12.9-19.9,20.5-21.6
			C567.4,259.6,586.8,235.7,599.5,218.3z"/>
		<path class="st8" d="M484.8,260.8c0,0-0.7,278.5,0,287.6C484.8,548.4,493.9,308.2,484.8,260.8z"/>
		<path class="st13" d="M415.9,182c0,0-7-30.6-22.5-33.1c-9.5-1.6-22-1.1-24.8-3.2c-2.8-2.1-12.2-20.5-12.2-20.5
			s11.8,19.8,19.8,19.8c8,0,29.6,2.6,33.1,11.9c3.5,9.3,11.5,15.2,11.5,15.2L415.9,182z"/>
		<linearGradient id="SVGID_12_" gradientUnits="userSpaceOnUse" x1="384.8057" y1="447.1756" x2="546.761" y2="732.2164">
			<stop  offset="0" style="stop-color:#22B573"/>
			<stop  offset="1" style="stop-color:#20603D"/>
		</linearGradient>
		<path class="st14" d="M468.8,490.9c0,0,0.2,13.2-14.9,21.5c-15.1,8.3-30,5.5-26,19.8c4,14.3-28.5,7.7-35.2,22.6
			c-6.7,14.9,10.9,21.5,10.9,21.5h93c0,0,17-18.7,0-36.4C479.7,522.3,468.8,490.9,468.8,490.9z"/>
		<linearGradient id="SVGID_13_" gradientUnits="userSpaceOnUse" x1="492.7161" y1="500.9009" x2="587.4588" y2="726.0165">
			<stop  offset="0" style="stop-color:#22B573"/>
			<stop  offset="1" style="stop-color:#20603D"/>
		</linearGradient>
		<path class="st15" d="M532.1,515.7c0,0,0.1,9.4-9.3,15.3c-9.4,5.9-18.7,3.9-16.2,14.1c2.5,10.2-17.7,5.5-21.9,16
			c-4.2,10.6,6.8,15.3,6.8,15.3h57.9c0,0,10.6-13.3,0-25.8S532.1,515.7,532.1,515.7z"/>
		<linearGradient id="SVGID_14_" gradientUnits="userSpaceOnUse" x1="302.9998" y1="316.0398" x2="538.1962" y2="-77.5541">
			<stop  offset="0" style="stop-color:#6B9E34"/>
			<stop  offset="0.1351" style="stop-color:#61933C"/>
			<stop  offset="1" style="stop-color:#1F4A6E"/>
		</linearGradient>
		<path class="st16" d="M430.2,57.4c-7.7,1.9-15.8,4.2-24.3,6.7c-5.6,1.7-11.4,3.5-17.4,5.5c-49.4,16.5-98.8,16.6-148,9.3
			c-8.6,5.2-14.1,15.6-0.3,36c0,0-30.6,17.5,2.7,40c33.3,22.5,74.5-4.5,84,23c4.4,12.6,18.9,20.5,35.4,22.8c0.7,0.1,1.4,0.2,2.1,0.3
			c14.3,1.6,29.9-1.1,41.4-8.5c3.7-2.4,7.1-5.3,9.8-8.7c5.6-7.1,5.3-13.1,2.1-18.4c4.1,0.7,8.3,1.3,12.3,1.8
			c5.7,0.7,11.3,1.2,16.4,1.5c3.2,0.2,6,0.1,8.6,0c11.6-0.9,17.5-5.2,21.3-10.7c4.1-6,5.6-13.4,9.1-19.2c6-1.7,10.2-4.5,11.6-8.9
			c2.9-0.8,6.3-1.1,10.6-0.9c36.4,2-23.4,46.2,23.7,59.4c3.6,1,7.8,1.8,12.7,2.4c57.9,7.1,39-11.9,55.3-25.1V85.1
			C599.5,85.1,573.3,21.6,430.2,57.4z"/>
		<linearGradient id="SVGID_15_" gradientUnits="userSpaceOnUse" x1="301.9998" y1="316.0398" x2="537.1962" y2="-77.5541">
			<stop  offset="1.036270e-02" style="stop-color:#0B7A53"/>
			<stop  offset="1" style="stop-color:#1F4A6E"/>
		</linearGradient>
		<path class="st17" d="M429.2,57.4c-7.7,1.9-15.8,4.2-24.3,6.7c-5.6,1.7-11.4,3.5-17.4,5.5c-49.4,16.5-98.8,16.6-148,9.3
			c-8.6,5.2-14.1,15.6-0.3,36c0,0-30.6,17.5,2.7,40c33.3,22.5,74.5-4.5,84,23c4.4,12.6,18.9,20.5,35.4,22.8c0.7,0.1,1.4,0.2,2.1,0.3
			c14.3,1.6,29.9-1.1,41.4-8.5c3.7-2.4,7.1-5.3,9.8-8.7c5.6-7.1,5.3-13.1,2.1-18.4c4.1,0.7,8.3,1.3,12.3,1.8
			c5.7,0.7,11.3,1.2,16.4,1.5c3.2,0.2,6,0.1,8.6,0c11.6-0.9,17.5-5.2,21.3-10.7c4.1-6,5.6-13.4,9.1-19.2c6-1.7,10.2-4.5,11.6-8.9
			c2.9-0.8,6.3-1.1,10.6-0.9c36.4,2-23.4,46.2,23.7,59.4c3.6,1,7.8,1.8,12.7,2.4c57.9,7.1,39-11.9,55.3-25.1V85.1
			C598.5,85.1,572.3,21.6,429.2,57.4z"/>
		<polyline class="st18" points="-31.8,403.7 223.9,403.7 223.9,413.5 -31.8,413.5 		"/>
		<polyline class="st18" points="-31.8,418.3 223.9,418.3 223.9,428.1 -31.8,428.1 		"/>
		<polyline class="st18" points="-49.3,464 223.9,464 223.9,473.8 -49.3,473.8 		"/>
		<polyline class="st18" points="-31.8,448 223.9,448 223.9,457.8 -31.8,457.8 		"/>
		<polyline class="st18" points="-31.8,433.1 223.9,433.1 223.9,443 -31.8,443 		"/>
		<g class="st19">
			
				<rect x="209.7" y="473.8" transform="matrix(-1 -1.224647e-16 1.224647e-16 -1 427.2134 1013.5099)" class="st20" width="7.9" height="65.9"/>
		</g>
		<g class="st19">
			
				<rect x="172.8" y="473.8" transform="matrix(-1 -1.224647e-16 1.224647e-16 -1 353.4407 1013.5099)" class="st20" width="7.9" height="65.9"/>
		</g>
		<linearGradient id="SVGID_16_" gradientUnits="userSpaceOnUse" x1="249.4191" y1="28.8184" x2="557.3597" y2="28.8184">
			<stop  offset="1.036270e-02" style="stop-color:#0B7A53"/>
			<stop  offset="1" style="stop-color:#1F4A6E"/>
		</linearGradient>
		<path class="st21" d="M557.4,31.7c-51.7-15.3-110.2-14-170.4,8.5c-58.4,21.9-137.6,12.2-137.6,12.2c76.7-7.3,84-25.6,154-44.6
			C452.2-5.4,516.8,11.4,557.4,31.7z"/>
		<g class="st19">
			<path class="st22" d="M298.1,529.5c0,0,0-8.1,0-9c0-0.9,9.1-0.7,9.1-0.7s0.6,8.7,1.2,10.3C309,531.7,298.1,529.5,298.1,529.5z"/>
			<g>
				<g>
					<path class="st23" d="M304.4,528.9c0,0-3.6-1.6-6-1.6c-2.4,0.1-2.1,1.6-2.7,2.5c-0.6,0.9-6.3,9.5-7.8,11c-1.5,1.5-7,3.2-6.3,7
						c0.8,3.9,7.7,5.4,16.3,4.3c8.6-1.1,12.8-9.1,14.1-10.9s-3.3-13.4-4.6-14.2C306.1,526.2,304.4,528.9,304.4,528.9z"/>
				</g>
			</g>
			<path class="st22" d="M223.7,528l2.2-7.5l9.5,1.4c0,0-2.2,10.2-1.7,11.3C234.2,534.4,223.7,528,223.7,528z"/>
			<g>
				<path class="st24" d="M251.9,228.7c0,0-5.5,27.1-2.4,54.1c3.1,27-3,69.9-3,69.9l30.4-44.4L251.9,228.7z"/>
			</g>
			<g>
				<g>
					<path class="st25" d="M256.2,334.8c0,0-7.4,34.1-9.1,42.7c-1.7,8.6-6.5,50.2-7,57.3c-0.5,7.1-7.7,33.8-7.4,36.3
						c0.3,2.5-11.7,52.6-11.7,52.6s12.9,1.6,16.3,0.2c2.3-0.9,16.6-46.8,16.6-59.5c0-17.5,10.3-40.3,11.7-44.3
						c14.6-39.1,17.3-48.4,19.4-50.8c0,0,0.3,3.2,1,8.5c0.8,6.1,4.3,49.7,5.8,55.4c1.5,5.7,0.3,25.1,1.2,34.9
						c0.8,9.8,2.4,54.4,2.4,54.4s11.7,0.3,15.1-1.6c1.1-0.6,1-47.9,1.2-59.6c0.2-11.6,0.3-27.7,0.7-32.7
						c3.1-48.2,10.9-55.1-1.3-89.2C288.3,275.7,256.2,334.8,256.2,334.8z"/>
				</g>
			</g>
			<path class="st26" d="M250.2,234.9c0,0-7.9,32.3-6.1,38.7c1.8,6.4,11.1,12.8,11.5,13.7c0.4,0.9,6.2,19.5,6,22.6
				c-0.2,3.2-5.5,24.9-5.5,24.9s28,20.3,57.9-6.1c0,0-10.5-30.2-10.7-33.4c-0.2-3.1-1.1-26.4,0-29.3c1-2.8,2.9-30.9,1.6-33.7
				c-1.3-2.7-16.5-10.4-28-12.7C265.5,217.3,250.2,234.9,250.2,234.9z"/>
			<g>
				<path class="st27" d="M323.6,379.3c-0.3-5.5-5.9-18.7-13-34.1c-1.7-3.6-3.4-7.3-5.2-11c-1.3-2.8-2.7-5.6-4-8.5
					c-8.7-18.5-17.4-37.2-20.7-48.7c-7.4-25.7,0.2-56.9,0.2-56.9c0,0,0,0,0,0c8.6,1.5,20.4,6.4,23.3,10.2c0,0,0,0,0,0
					c0.1,0.2,0.2,0.4,0.3,0.6c1,1.8,3.7,9.8,6.7,15.7c0,0-4,3-6.9,9.6c-1.2,2.8-2.1,5.8-2.2,8.9c-0.1,1.4,0,2.7,0.3,4
					c0.1,0.4,0.2,0.9,0.3,1.3c3.7,11.6,7.7,24.3,7.7,24.3c0,1.1,0.2,2.3,0.5,3.6c0,0,0,0,0,0v0c0.5,2.6,1.5,5.4,2.7,8.4
					c0.1,0.4,0.3,0.7,0.4,1.1c0,0,0,0,0,0c2,5,4.7,10.4,7.3,15.9c4.2,9,8.2,18.1,9,25.7C332,366.1,323.6,379.3,323.6,379.3z"/>
			</g>
			<path class="st24" d="M314,307.7c-7.5-8-17.5-46-17.5-46c2.1-0.2,3.9,1.1,5.5,3.4c6.2,8.9,8.7,32.2,8.8,33.1c0,0,0,0,0,0v0
				c0.5,2.6,1.5,5.4,2.7,8.4C313.7,307,313.9,307.3,314,307.7C314,307.7,314,307.7,314,307.7z"/>
			<g>
				<path class="st22" d="M351.8,315.5c0,0,4.2,1.6,6.2-0.5c1.5-1.6,4.2-4.6,4.6-5.4c0.4-0.8,2.7-3.9,3.1-2.3
					c0.4,1.6-2.1,8.9-3.3,9.8c-1.2,0.9,5,2.3,5.9,3.5c0.9,1.2-2.3,11.6-6.4,10.1c-4.1-1.5-7.1-5.8-7.8-6.1c-1.2-0.6-5.8-2.5-5.8-2.5
					L351.8,315.5z"/>
			</g>
			<g>
				<path class="st22" d="M367.4,320c0,0,12.3,5.5,12.8,6.5c0.5,1.1,0.2,1.7-1,1.3c-1.2-0.5-12-4.9-12-4.9s13.4,9,14,9.8
					c0.4,0.5-0.2,1.8-0.9,1.6c-0.6-0.2-14.5-8.3-14.5-8.3s12.5,8.4,12.8,9.2c0.3,0.7-0.6,1.8-1.5,1.3c-1-0.6-13-7.7-13-7.7
					s8.5,6.7,8.6,7.6c0,0.8-0.5,1.7-2.7-0.1c-2.2-1.8-7.8-5.5-7.8-5.5L367.4,320z"/>
			</g>
			<g>
				<path class="st27" d="M315.2,260.5c2.5,11.8,7.1,28.7,8.3,30.8c0.5,0.9,2.6,2.6,5.4,4.9c4,3.4,26.6,19.5,26.6,19.5
					c0.1,4-5.4,9.7-5.4,9.7c-3.7-2.3-11.3-6.8-19.5-11.2c-9.4-5.1-16.2-10.1-18-12.8c-3.3-5-14.8-35.3-17.1-43
					c-0.9-2.9-1.9-7.9-2.8-12.8c-1.2-6.5-2.2-13-2.5-15.1c-0.1-0.4-0.1-0.6-0.1-0.7c0,0,0,0,0,0s4.9-6.4,13.8,0.2
					C303.8,229.9,310.2,236.3,315.2,260.5z"/>
			</g>
			<g>
				<path class="st28" d="M333.1,484.6c-7,0-12.8-5.3-12.8-11.7c0-6.5,5.7-11.7,12.8-11.7c7,0,12.8,5.3,12.8,11.7
					C345.8,479.4,340.1,484.6,333.1,484.6z M333.1,463.8c-5.4,0-9.8,4.1-9.8,9.1c0,5,4.4,9.1,9.8,9.1c5.4,0,9.8-4.1,9.8-9.1
					C342.9,467.9,338.5,463.8,333.1,463.8z"/>
			</g>
			<rect x="301.2" y="514.2" class="st29" width="63.7" height="31.8"/>
			<path class="st30" d="M304.1,552c0,0-0.3-7.1,0-45.5c0.3-39.8,29.3-39.2,29.3-39.2s29-0.6,29.3,39.2c0.3,38.3,0,45.5,0,45.5
				H304.1z"/>
			<rect x="310.8" y="514.2" class="st31" width="45.3" height="31.8"/>
			<rect x="310.8" y="514.2" class="st32" width="45.3" height="8.8"/>
			<g>
				<g>
					<path class="st23" d="M231.5,530.8c0,0-3.3-2.9-4.9-3.2c-1.6-0.3-3.2-0.3-3.8,0.5c-0.7,0.8-2.7,3.8-3.7,4.8
						c-1.1,0.9-8.7,8.3-10.5,8.8c-1.8,0.5-9.6,0.1-9.2,4.6c0.4,4.5,6.8,6.5,18,5.5c11.3-1,9.9-3.7,16.2-5c6.3-1.4,6.8-4.5,5.6-8.4
						c-1.1-3.8-5.6-7.7-5.1-8.7C234.7,528.6,231.5,530.8,231.5,530.8z"/>
				</g>
			</g>
			<g>
				<polygon class="st33" points="233,217.5 247.6,195.9 234.5,189.6 222,211.6 				"/>
			</g>
			<g>
				<polygon class="st34" points="233.1,215.6 245.7,196.9 234.4,191.4 223.6,210.5 				"/>
			</g>
			<g>
				<path class="st35" d="M222.3,220.5c0,0,2.7-1.4,1-4.4c-1.7-3-0.5-4.1-0.5-4.1l12.2,6.5c0,0-3.7,5.6-5.1,6.2
					C228.5,225.3,221.3,222.7,222.3,220.5z"/>
			</g>
			<g>
				<path class="st35" d="M235.1,218.6c0,0,5.1-5.2,5.5-5.9c0.4-0.7,2.5-3.8,3.2-5.5c0.7-1.7-3.6-0.2-4.5,1.6
					c-0.9,1.8-1.9,2.5-2.7,3.1c-0.8,0.6-6.1,2.2-6.8,4C229.2,217.6,235.1,218.6,235.1,218.6z"/>
			</g>
			<g>
				<path class="st35" d="M224.2,209.7c0,0,1,0.7,1.3-0.5c0.3-1.2-0.3-3.5-1.7-2.6C222.5,207.5,224.2,209.7,224.2,209.7z"/>
			</g>
			<g>
				<path class="st35" d="M225.2,206c0,0,0.7,1.7,1.4,0.7c0.7-1,0.9-4.2-0.7-3.7C224.4,203.5,225.2,206,225.2,206z"/>
			</g>
			<g>
				<path class="st35" d="M227.2,202.8c0,0,0.5,2.1,1.4,1.2c0.7-0.7,0.8-4.8-0.7-4.3C226.3,200.2,227.2,202.8,227.2,202.8z"/>
			</g>
			<g>
				<path class="st27" d="M257.1,224l-2.3,8.4l-6.6,24.3c0,0-2.2,1.8-5.3,4.3c-6.8,5.5-22.2,15.8-23.8,16.4
					c-2.2,0.8-13.1,1.1-13.8-6.4c-0.7-7.4,16.5-50.4,16.5-50.4c5.3-1.3,10.8,1.1,10.8,1.1l-8.7,34.4c0.1-0.1,6.2-4,11.2-11.3
					c2.6-3.8,8.3-9.2,13.3-13.6c3.3-3,6.3-5.4,7.7-6.6C256.7,224.2,257.1,224,257.1,224z"/>
			</g>
			<g>
				<path class="st36" d="M237.6,172.1c0,0-12.2,7.8-10.1,18.8c3.4,17,15.9,21.9,17,32.9c1,10.9-3.8,14.8-3.8,14.8l18.9-16.8
					L237.6,172.1z"/>
			</g>
			<g>
				<path class="st22" d="M276.1,218.9c-1.6,17.4-11,30.1-14.6,32c-3.6,1.9-7.7-18.1-5.7-21.6c0.5-1,0.6-2.3,0.5-3.8
					c-0.3-2.9-1.5-6.2-2.2-8c-0.3-0.8-0.5-1.3-0.5-1.3s11.8-22.9,14.2-10.8C270.2,217.4,276.1,218.9,276.1,218.9z"/>
			</g>
			<g>
				<path class="st37" d="M264.7,212.6c0,0.1-3,9.4-8.4,12.8c-0.3-2.9-1.5-6.2-2.2-8L264.7,212.6z"/>
			</g>
			<g>
				<path class="st22" d="M232,177.8c0,0,1.3,23.1,8.2,33.5c11,16.6,16.3,11,23.3,2.9c10.1-11.7-3.8-41.5-3.8-41.5L232,177.8z"/>
			</g>
			<g>
				<path class="st36" d="M231.5,196.5c0,0,7.3,1.8,17.9-4.6c10.5-6.3,14.7,17.9,17.2,18.6c2.5,0.6,3.9-26.4-1.7-32.7
					c-5.7-6.3-15.9-14.1-26-7.6C227.7,177.3,226.1,186.9,231.5,196.5z"/>
			</g>
			<g>
				<path class="st36" d="M234.4,174.1c0,0,3.8-6.4,15.3-7c8.7-0.4,22.3,8.5,23.8,26.3c1.9,22.9,12.6,27.1,17.4,29.4
					c4.8,2.2-16.5,0.8-22.9-9.2c-2.9-4.5-6.8-11.2-8.2-15.9c-1.4-4.7-11.7-22.6-19.3-19.3C233,181.8,234.4,174.1,234.4,174.1z"/>
			</g>
			<g>
				<path class="st22" d="M257.7,198.4c-1-2.9,3.4-6,5-3.8c1.6,2.2,1.1,10.2-1.6,9.3C258.5,203,257.7,198.4,257.7,198.4z"/>
			</g>
			<g>
				<path class="st27" d="M256.2,224.7c0,0,0.6,2.7-0.2,7.3c-1.3,7.3-4.2,18.8-4.5,27.1c-0.6,13.4,7.4,36.6-1.9,88.5
					c-1.5,2.5-3.2,5.3-4.9,8.2c0.1-0.4,6.8-61,1.3-75.8c-3.1-8.3-3.4-7.9-3-18.9c0.3-8.5,0.5-16.4,4-27.9
					C250.3,230.1,254.8,225.8,256.2,224.7z"/>
			</g>
			<g>
				<polygon class="st24" points="223.9,256.2 220.3,267.6 228.2,252.8 				"/>
			</g>
		</g>
		<linearGradient id="SVGID_17_" gradientUnits="userSpaceOnUse" x1="524.9443" y1="669.3019" x2="524.9443" y2="560.4418">
			<stop  offset="0" style="stop-color:#EAD7BB"/>
			<stop  offset="1" style="stop-color:#FBB03B"/>
		</linearGradient>
		<rect x="150" y="623.7" class="st38" width="749.8" height="36.8"/>
		<linearGradient id="SVGID_18_" gradientUnits="userSpaceOnUse" x1="872.0803" y1="316.0697" x2="1053.1058" y2="358.8894">
			<stop  offset="1.036270e-02" style="stop-color:#0B7A53"/>
			<stop  offset="1" style="stop-color:#1F4A6E"/>
		</linearGradient>
		<rect x="837" y="257" class="st39" width="171" height="142"/>
		<linearGradient id="SVGID_19_" gradientUnits="userSpaceOnUse" x1="672.9757" y1="51.2446" x2="1066.5502" y2="51.2446">
			<stop  offset="0" style="stop-color:#22B573"/>
			<stop  offset="1" style="stop-color:#20603D"/>
		</linearGradient>
		<path class="st40" d="M1066.6,76.7c-1.1,0.2-2.3,0.5-3.4,0.8c-26.7,7.3-0.6,25.9-44.8,20.5c-44.2-5.4,1.7-37.9-23.2-39.3
			c-2.7-0.1-4.9,0-6.7,0.5c-0.9,2.9-3.6,4.6-7.4,5.7c-4.6,7.9-3.8,20.2-24.8,19c-5.6-0.3-12-1-18.3-2.1c2,3.3,2.3,7.2-1.3,11.7
			c-11.4,14.2-38.4,14.3-50.9,4c-2.6-2.1-4.5-4.7-5.6-7.7c-1-2.8-2.5-4.7-4.4-6c-5-3.4-12.8-2.5-21.5-2.3c-3.4,0.1-6.9,0-10.5-0.3
			c-0.3,0.2-0.5,0.4-0.8,0.6c-11,8.4,1.6,20.8-35.6,16.3c-44.2-5.4,1.7-37.9-23.2-39.3c-22.4-1.2-10.6,21.5-30.7,24.9
			c-1.9,5-5.2,7.5-9.6,8.7c-4.4,1.2-9.9,1.1-16.2,0.9c-8.3-0.2-17.9-0.4-28.2,2.4c-21.8,5.9-8.5,19.4-26.7,21.2
			C717.9,33.4,799-6.2,930.5-14c36.1-2.1,63.6,6.2,84.5,20.2v0c0,0,0.1,0,0.1,0.1C1041.3,24,1057.2,50.6,1066.6,76.7z"/>
		<path class="st8" d="M641.3,376.8h-13.4V176c2.2-2.7,4.4-5.3,6.7-7.9c1.7,9.9,3.1,22.1,3.4,35.9c0.8,37.7,1.2,72,0,90.7
			c-1.2,18.7,0,33.1,0,33.1L641.3,376.8z"/>
	</g>
	<g>
	</g>
	<g>
	</g>
	<g>
	</g>
	<g>
	</g>
	<g>
	</g>
	<g>
	</g>
	<g>
	</g>
	<g>
	</g>
	<g>
	</g>
	<g>
	</g>
	<g>
	</g>
</g>
</svg>
