<?xml version="1.0" encoding="utf-8"?>
<!-- Generator: Adobe Illustrator 24.1.0, SVG Export Plug-In . SVG Version: 6.00 Build 0)  -->
<svg version="1.1" id="Layer_1" xmlns="http://www.w3.org/2000/svg" xmlns:xlink="http://www.w3.org/1999/xlink" x="0px" y="0px"
	 viewBox="0 0 111.08 102.84" style="enable-background:new 0 0 111.08 102.84;" xml:space="preserve">
<style type="text/css">
	.st0{fill:#0B7A53;}
	.st1{fill:#0B7A53;stroke:#0B7A53;stroke-width:2;stroke-miterlimit:10;}
</style>
<g id="Recycle_logo">
	<g>
		<path class="st0" d="M49.54,72.27h-24c0.3,2.1,1.3,3.8,2.8,5c1.5,1.2,3.4,1.9,5.8,1.9c2.8,0,5.2-1,7.2-2.9l6.3,3
			c-1.6,2.2-3.4,3.9-5.6,4.9c-2.2,1.1-4.8,1.6-7.8,1.6c-4.7,0-8.5-1.5-11.4-4.4s-4.4-6.6-4.4-11.1s1.5-8.3,4.4-11.3s6.6-4.5,11-4.5
			c4.7,0,8.5,1.5,11.4,4.5s4.4,7,4.4,11.9L49.54,72.27z M42.04,66.37c-0.5-1.7-1.5-3-2.9-4c-1.5-1-3.1-1.6-5-1.6
			c-2.1,0-3.9,0.6-5.5,1.7c-1,0.7-1.9,2-2.7,3.9C25.94,66.37,42.04,66.37,42.04,66.37z"/>
		<path class="st0" d="M48.84,65.37h13.9v6.9h-13.9V65.37z"/>
		<path class="st0" d="M92.64,61.27l-6.2,3.4c-1.2-1.2-2.3-2.1-3.5-2.5c-1.1-0.5-2.5-0.7-4-0.7c-2.8,0-5,0.8-6.8,2.5
			c-1.7,1.7-2.6,3.8-2.6,6.4c0,2.5,0.8,4.6,2.5,6.2s3.8,2.4,6.5,2.4c3.3,0,5.9-1.1,7.8-3.4l5.9,4c-3.2,4.1-7.7,6.2-13.5,6.2
			c-5.2,0-9.3-1.5-12.3-4.6c-3-3.1-4.4-6.7-4.4-10.9c0-2.9,0.7-5.5,2.2-7.9c1.4-2.4,3.4-4.3,6-5.7s5.5-2.1,8.6-2.1
			c3,0,5.6,0.6,7.9,1.8S91.14,59.07,92.64,61.27z"/>
	</g>
	<g>
		<g>
			<g>
				<path class="st0" d="M53.64,76.87h6.5c0.3,0,0.5-0.2,0.5-0.5c0-1-0.3-3.3-3.2-3.3l-0.6-11.6c0-0.3,0-0.6-0.2-0.9
					c-0.6-1.7-3.4-8.8-5.6-11c0,0,3.2-7,6.4-11.4c0,0,2,6.5,3.8,7c2.5,0.6,10.8,1.3,10.8,1.3l-0.6-3.2c0,0-7.6-0.6-8.3-1.3
					c-0.6-0.6-2.5-10.8-5.1-12.7l-3.2-3.8c0,0-4.5,5.7-7,8.9c-2,2.5-5.6,8.6-6.6,11.5c-0.2,0.5-0.5,1-0.6,1.6
					c-0.4,2.1-0.4,2.9,3.8,5.2c1,0.6,2.5,1.7,3.3,2.5c1.1,1.2,2.5,3,3.8,5.5c0.5,1,1.4,4.7,1.4,5.8v9.9
					C52.94,76.57,53.24,76.87,53.64,76.87z"/>
				<path class="st0" d="M63.04,22.47c0,2.6-0.6,5.4-2.8,5.4s-5.4-3.4-5.4-6s1.9-4.8,4.1-4.8S63.04,19.87,63.04,22.47z"/>
				<path class="st0" d="M54.84,25.37c0,0,0.6-1.3,0.1-2.5c-0.8-2,4.3-3.3,4.3-3.3l1.3,4.5c0,1.7,1.7,3.2-1.3,3.2
					c-1.3,0-0.6,2.7-0.6,2.7l-3.2,1.7L54.84,25.37z"/>
			</g>
			<polygon class="st0" points="74.74,57.17 69.24,43.77 71.94,43.77 77.64,57.17 			"/>
			<path class="st0" d="M68.34,43.27c-0.4-0.4,0.9-1.1,1.5-1.4s1.9-0.7,2.2-0.7c0.6,0,1,2.7,0.4,3.2c-0.5,0.4-2.3-0.6-2.3-0.6
				L68.34,43.27z"/>
		</g>
		<path class="st1" d="M45.64,47.07c6.8,2.7,11.1,11.3,11.1,18.3l-0.3,9.2"/>
	</g>
</g>
</svg>
