<?xml version="1.0" encoding="utf-8"?>
<!-- Generator: Adobe Illustrator 24.1.0, SVG Export Plug-In . SVG Version: 6.00 Build 0)  -->
<svg version="1.1" id="Layer_1" xmlns="http://www.w3.org/2000/svg" xmlns:xlink="http://www.w3.org/1999/xlink" x="0px" y="0px"
	 viewBox="0 0 74.2 68.7" style="enable-background:new 0 0 74.2 68.7;" xml:space="preserve">
<style type="text/css">
	.st0{fill:#0B7A53;}
	.st1{fill:#0B7A53;stroke:#0B7A53;stroke-width:2;stroke-miterlimit:10;}
</style>
<g id="Recycle_logo">
	<g>
		<path class="st0" d="M31.1,55.2h-24c0.3,2.1,1.3,3.8,2.8,5s3.4,1.9,5.8,1.9c2.8,0,5.2-1,7.2-2.9l6.3,3c-1.6,2.2-3.4,3.9-5.6,4.9
			c-2.2,1.1-4.8,1.6-7.8,1.6c-4.7,0-8.5-1.5-11.4-4.4S0,57.7,0,53.2s1.5-8.3,4.4-11.3s6.6-4.5,11-4.5c4.7,0,8.5,1.5,11.4,4.5
			s4.4,7,4.4,11.9L31.1,55.2z M23.6,49.3c-0.5-1.7-1.5-3-2.9-4c-1.5-1-3.1-1.6-5-1.6c-2.1,0-3.9,0.6-5.5,1.7c-1,0.7-1.9,2-2.7,3.9
			C7.5,49.3,23.6,49.3,23.6,49.3z"/>
		<path class="st0" d="M30.4,48.3h13.9v6.9H30.4V48.3z"/>
		<path class="st0" d="M74.2,44.2L68,47.6c-1.2-1.2-2.3-2.1-3.5-2.5c-1.1-0.5-2.5-0.7-4-0.7c-2.8,0-5,0.8-6.8,2.5
			c-1.7,1.7-2.6,3.8-2.6,6.4c0,2.5,0.8,4.6,2.5,6.2c1.7,1.6,3.8,2.4,6.5,2.4c3.3,0,5.9-1.1,7.8-3.4l5.9,4c-3.2,4.1-7.7,6.2-13.5,6.2
			c-5.2,0-9.3-1.5-12.3-4.6s-4.4-6.7-4.4-10.9c0-2.9,0.7-5.5,2.2-7.9c1.4-2.4,3.4-4.3,6-5.7s5.5-2.1,8.6-2.1c3,0,5.6,0.6,7.9,1.8
			S72.7,42,74.2,44.2z"/>
	</g>
	<g>
		<g>
			<g>
				<path class="st0" d="M35.2,59.8h6.5c0.3,0,0.5-0.2,0.5-0.5c0-1-0.3-3.3-3.2-3.3l-0.6-11.6c0-0.3,0-0.6-0.2-0.9
					c-0.6-1.7-3.4-8.8-5.6-11c0,0,3.2-7,6.4-11.4c0,0,2,6.5,3.8,7c2.5,0.6,10.8,1.3,10.8,1.3L53,26.2c0,0-7.6-0.6-8.3-1.3
					c-0.6-0.6-2.5-10.8-5.1-12.7l-3.2-3.8c0,0-4.5,5.7-7,8.9c-2,2.5-5.6,8.6-6.6,11.5c-0.2,0.5-0.5,1-0.6,1.6
					c-0.4,2.1-0.4,2.9,3.8,5.2c1,0.6,2.5,1.7,3.3,2.5c1.1,1.2,2.5,3,3.8,5.5c0.5,1,1.4,4.7,1.4,5.8v9.9
					C34.5,59.5,34.8,59.8,35.2,59.8z"/>
				<path class="st0" d="M44.6,5.4c0,2.6-0.6,5.4-2.8,5.4s-5.4-3.4-5.4-6S38.3,0,40.5,0S44.6,2.8,44.6,5.4z"/>
				<path class="st0" d="M36.4,8.3c0,0,0.6-1.3,0.1-2.5c-0.8-2,4.3-3.3,4.3-3.3L42.1,7c0,1.7,1.7,3.2-1.3,3.2
					c-1.3,0-0.6,2.7-0.6,2.7L37,14.6L36.4,8.3z"/>
			</g>
			<polygon class="st0" points="56.3,40.1 50.8,26.7 53.5,26.7 59.2,40.1 			"/>
			<path class="st0" d="M49.9,26.2c-0.4-0.4,0.9-1.1,1.5-1.4s1.9-0.7,2.2-0.7c0.6,0,1,2.7,0.4,3.2c-0.5,0.4-2.3-0.6-2.3-0.6
				L49.9,26.2z"/>
		</g>
		<path class="st1" d="M27.2,30c6.8,2.7,11.1,11.3,11.1,18.3L38,57.5"/>
	</g>
</g>
</svg>
