<?xml version="1.0" encoding="utf-8"?>
<!-- Generator: Adobe Illustrator 22.0.0, SVG Export Plug-In . SVG Version: 6.00 Build 0)  -->
<svg version="1.1" id="Layer_1" xmlns="http://www.w3.org/2000/svg" xmlns:xlink="http://www.w3.org/1999/xlink" x="0px" y="0px"
	 viewBox="0 0 215.7 80.2" style="enable-background:new 0 0 215.7 80.2;" xml:space="preserve">
<style type="text/css">
	.st0{fill:none;}
	.st1{fill:#303837;}
	.st2{fill:#0B7A53;}
	.st3{filter:url(#Adobe_OpacityMaskFilter);}
	.st4{mask:url(#SVGID_1_);}
	.st5{filter:url(#Adobe_OpacityMaskFilter_1_);}
	.st6{fill:#0B7A53;stroke:#0B7A53;stroke-width:2;stroke-miterlimit:10;}
</style>
<g id="Recycle_logo">
	<g>
		<rect y="26.7" class="st0" width="215.7" height="52.4"/>
		<path class="st1" d="M2.4,38.2h6.4v3.7c0.7-1.5,1.6-2.6,2.8-3.4c1.1-0.8,2.4-1.1,3.8-1.1c1,0,2,0.3,3,0.8l-2.3,6.4
			c-0.9-0.4-1.6-0.7-2.2-0.7c-1.1,0-2.1,0.7-2.9,2.1c-0.8,1.4-1.2,4.2-1.2,8.4l0,1.4v12H2.4V38.2z"/>
		<path class="st2" d="M51.9,55.2h-24c0.3,2.1,1.3,3.8,2.8,5c1.5,1.2,3.4,1.9,5.8,1.9c2.8,0,5.2-1,7.2-2.9l6.3,3
			c-1.6,2.2-3.4,3.9-5.6,4.9c-2.2,1.1-4.8,1.6-7.8,1.6c-4.7,0-8.5-1.5-11.4-4.4c-2.9-2.9-4.4-6.6-4.4-11.1c0-4.5,1.5-8.3,4.4-11.3
			c2.9-3,6.6-4.5,11-4.5c4.7,0,8.5,1.5,11.4,4.5c2.9,3,4.4,7,4.4,11.9L51.9,55.2z M44.4,49.3c-0.5-1.7-1.5-3-2.9-4
			c-1.5-1-3.1-1.6-5-1.6c-2.1,0-3.9,0.6-5.5,1.7c-1,0.7-1.9,2-2.7,3.9H44.4z"/>
		<path class="st2" d="M51.2,48.3h13.9v6.9H51.2V48.3z"/>
		<path class="st2" d="M95,44.2l-6.2,3.4c-1.2-1.2-2.3-2.1-3.5-2.5c-1.1-0.5-2.5-0.7-4-0.7c-2.8,0-5,0.8-6.8,2.5
			c-1.7,1.7-2.6,3.8-2.6,6.4c0,2.5,0.8,4.6,2.5,6.2c1.7,1.6,3.8,2.4,6.5,2.4c3.3,0,5.9-1.1,7.8-3.4l5.9,4c-3.2,4.1-7.7,6.2-13.5,6.2
			c-5.2,0-9.3-1.5-12.3-4.6c-3-3.1-4.4-6.7-4.4-10.9c0-2.9,0.7-5.5,2.2-7.9c1.4-2.4,3.4-4.3,6-5.7c2.6-1.4,5.5-2.1,8.6-2.1
			c3,0,5.6,0.6,7.9,1.8S93.5,42,95,44.2z"/>
		<path class="st1" d="M98.3,38.2h7.6l7.7,18.6l8.5-18.6h7.6l-18.6,40.6h-7.7l6.1-13.1L98.3,38.2z"/>
		<path class="st1" d="M163,44.2l-6.2,3.4c-1.2-1.2-2.3-2.1-3.5-2.5c-1.1-0.5-2.5-0.7-4-0.7c-2.8,0-5,0.8-6.8,2.5s-2.6,3.8-2.6,6.4
			c0,2.5,0.8,4.6,2.5,6.2s3.8,2.4,6.5,2.4c3.3,0,5.9-1.1,7.8-3.4l5.9,4c-3.2,4.1-7.7,6.2-13.5,6.2c-5.2,0-9.3-1.5-12.3-4.6
			c-3-3.1-4.4-6.7-4.4-10.9c0-2.9,0.7-5.5,2.2-7.9c1.4-2.4,3.4-4.3,6-5.7c2.6-1.4,5.5-2.1,8.6-2.1c3,0,5.6,0.6,7.9,1.8
			S161.5,42,163,44.2z"/>
		<path class="st1" d="M168.9,26.7h7.5v41.2h-7.5V26.7z"/>
		<path class="st1" d="M213,55.2h-24c0.3,2.1,1.3,3.8,2.8,5c1.5,1.2,3.4,1.9,5.8,1.9c2.8,0,5.2-1,7.2-2.9l6.3,3
			c-1.6,2.2-3.4,3.9-5.6,4.9s-4.8,1.6-7.8,1.6c-4.7,0-8.5-1.5-11.4-4.4c-2.9-2.9-4.4-6.6-4.4-11.1c0-4.5,1.5-8.3,4.4-11.3
			s6.6-4.5,11-4.5c4.7,0,8.5,1.5,11.4,4.5s4.4,7,4.4,11.9L213,55.2z M205.5,49.3c-0.5-1.7-1.5-3-2.9-4s-3.1-1.6-5-1.6
			c-2.1,0-3.9,0.6-5.5,1.7c-1,0.7-1.9,2-2.7,3.9H205.5z"/>
	</g>
	<defs>
		<filter id="Adobe_OpacityMaskFilter" filterUnits="userSpaceOnUse" x="42.9" y="0" width="37.1" height="59.8">
			<feFlood  style="flood-color:white;flood-opacity:1" result="back"/>
			<feBlend  in="SourceGraphic" in2="back" mode="normal"/>
		</filter>
	</defs>
	<mask maskUnits="userSpaceOnUse" x="42.9" y="0" width="37.1" height="59.8" id="SVGID_1_">
		<g class="st3">
			<path d="M55.7,50.4c0,8.7-7.8,15.8-16.5,15.8s-16.5-7.1-16.5-15.8s7.8-15.9,16.5-16.5C49.1,33.2,55.7,40.5,55.7,50.4z"/>
		</g>
	</mask>
	<g class="st4">
		<defs>
			<filter id="Adobe_OpacityMaskFilter_1_" filterUnits="userSpaceOnUse" x="42.9" y="0" width="37.1" height="59.8">
				<feFlood  style="flood-color:white;flood-opacity:1" result="back"/>
				<feBlend  in="SourceGraphic" in2="back" mode="normal"/>
			</filter>
		</defs>
		<mask maskUnits="userSpaceOnUse" x="42.9" y="0" width="37.1" height="59.8" id="SVGID_1_">
			<g class="st5">
				<path d="M55.3,49c0,8.4-7,15.5-15.6,15.5S24,57.4,24,49s7.2-15.8,15.8-15.8S55.3,40.5,55.3,49z"/>
			</g>
		</mask>
		<g>
			<g>
				<path class="st2" d="M56,59.8h6.5c0.3,0,0.5-0.2,0.5-0.5c0-1-0.3-3.3-3.2-3.3l-0.6-11.6c0-0.3,0-0.6-0.2-0.9
					c-0.6-1.7-3.4-8.8-5.6-11c0,0,3.2-7,6.4-11.4c0,0,2,6.5,3.8,7c2.5,0.6,10.8,1.3,10.8,1.3l-0.6-3.2c0,0-7.6-0.6-8.3-1.3
					c-0.6-0.6-2.5-10.8-5.1-12.7l-3.2-3.8c0,0-4.5,5.7-7,8.9c-2,2.5-5.6,8.6-6.6,11.5c-0.2,0.5-0.5,1-0.6,1.6
					c-0.4,2.1-0.4,2.9,3.8,5.2c1,0.6,2.5,1.7,3.3,2.5c1.1,1.2,2.5,3,3.8,5.5c0.5,1,1.4,4.7,1.4,5.8l0,9.9
					C55.3,59.5,55.6,59.8,56,59.8z"/>
				<path class="st2" d="M65.4,5.4c0,2.6-0.6,5.4-2.8,5.4s-5.4-3.4-5.4-6S59.1,0,61.3,0S65.4,2.8,65.4,5.4z"/>
				<path class="st2" d="M57.2,8.3c0,0,0.6-1.3,0.1-2.5c-0.8-2,4.3-3.3,4.3-3.3L62.9,7c0,1.7,1.7,3.2-1.3,3.2
					c-1.3,0-0.6,2.7-0.6,2.7l-3.2,1.7L57.2,8.3z"/>
			</g>
			<polygon class="st2" points="77.1,40.1 71.6,26.7 74.3,26.7 80,40.1 			"/>
			<path class="st2" d="M70.7,26.2c-0.4-0.4,0.9-1.1,1.5-1.4c0.6-0.3,1.9-0.7,2.2-0.7c0.6,0,1,2.7,0.4,3.2c-0.5,0.4-2.3-0.6-2.3-0.6
				L70.7,26.2z"/>
		</g>
		<path class="st6" d="M48,30c6.8,2.7,11.1,11.3,11.1,18.3l-0.3,9.2"/>
	</g>
</g>
<g>
</g>
<g>
</g>
<g>
</g>
<g>
</g>
<g>
</g>
<g>
</g>
<g>
</g>
<g>
</g>
<g>
</g>
<g>
</g>
<g>
</g>
</svg>
